<?xml version="1.0" encoding="UTF-8" standalone="no"?>
<!-- Created with Inkscape (http://www.inkscape.org/) -->

<svg
   width="150mm"
   height="50mm"
   viewBox="0 0 150 50"
   version="1.1"
   id="svg57"
   inkscape:version="1.1.2 (0a00cf5339, 2022-02-04)"
   sodipodi:docname="mushin-logo.svg"
   xmlns:inkscape="http://www.inkscape.org/namespaces/inkscape"
   xmlns:sodipodi="http://sodipodi.sourceforge.net/DTD/sodipodi-0.dtd"
   xmlns="http://www.w3.org/2000/svg"
   xmlns:svg="http://www.w3.org/2000/svg">
  <sodipodi:namedview
     id="namedview59"
     pagecolor="#ffffff"
     bordercolor="#666666"
     borderopacity="1.0"
     inkscape:pageshadow="2"
     inkscape:pageopacity="0.0"
     inkscape:pagecheckerboard="true"
     inkscape:document-units="mm"
     showgrid="false"
     fit-margin-top="0"
     fit-margin-left="0"
     fit-margin-right="0"
     fit-margin-bottom="0"
     inkscape:showpageshadow="false"
     inkscape:zoom="1.7255553"
     inkscape:cx="300.48298"
     inkscape:cy="204.28207"
     inkscape:window-width="1920"
     inkscape:window-height="1136"
     inkscape:window-x="0"
     inkscape:window-y="0"
     inkscape:window-maximized="1"
     inkscape:current-layer="layer1" />
  <defs
     id="defs54">
    <rect
       x="207.73657"
       y="-0.13808961"
       width="359.38386"
       height="189.43177"
       id="rect25107" />
    <rect
       x="217.57127"
       y="0.0029874262"
       width="349.79178"
       height="188.34827"
       id="rect75601" />
  </defs>
  <g
     inkscape:label="Layer 1"
     inkscape:groupmode="layer"
     id="layer1"
     transform="translate(-25.595518,-80.923795)">
    <path
       fill="#000000"
       d="m 34.387429,96.319229 c -0.003,3.31e-4 0.0222,-0.0572 0.0757,-0.168465 0.0533,-0.111094 0.078,-0.179787 0.195369,-0.389235 0.117181,-0.209629 0.19109,-0.385124 0.37812,-0.679974 0.18707,-0.294882 0.330731,-0.556613 0.591701,-0.923707 0.26097,-0.367084 0.49112,-0.692655 0.82848,-1.118951 0.337331,-0.426307 0.58999,-0.736728 1.028071,-1.188694 0.438069,-0.451958 0.779808,-0.813262 1.31975,-1.270148 0.53999,-0.456898 0.990909,-0.829792 1.630159,-1.271909 0.63924,-0.442066 1.20769,-0.786841 1.940211,-1.195784 0.732509,-0.408976 1.3505,-0.685227 2.183681,-1.005769 0.8332,-0.320571 1.543761,-0.575022 2.45776,-0.785438 0.91397,-0.210429 1.715521,-0.401348 2.68631,-0.483829 0.970831,-0.08249 1.882202,-0.121545 2.884471,-0.110876 1.002261,0.0102 1.91436,0.146628 2.923372,0.304983 1.00902,0.158336 1.93248,0.434886 2.91693,0.743309 0.984421,0.308411 1.89078,0.727896 2.819451,1.181093 0.928649,0.453188 1.79293,1.006368 2.637201,1.59064 0.844319,0.584272 1.636299,1.265788 2.372749,1.960104 0.736461,0.694376 1.42788,1.490336 2.039391,2.268745 0.611521,0.77841 1.184391,1.664263 1.660481,2.498034 0.47613,0.833751 0.92448,1.780447 1.260969,2.639829 0.33653,0.859462 0.666592,1.838803 0.865121,2.694523 0.19857,0.85569 0.370249,1.79549 0.47822,2.61488 0.10791,0.81934 0.165901,1.79416 0.153801,2.56092 -0.0115,0.76676 -0.0485,1.63565 -0.12828,2.33042 -0.0799,0.69471 -0.200901,1.49838 -0.3333,2.10795 -0.132391,0.6096 -0.300561,1.25186 -0.441451,1.77308 -0.140541,0.52124 -0.376489,1.14778 -0.535669,1.56668 -0.159221,0.41893 -0.349611,0.87231 -0.488801,1.19116 -0.13918,0.31889 -0.30844,0.67183 -0.4142,0.88668 -0.10576,0.21484 -0.185851,0.37952 -0.23839,0.49043 -0.0525,0.11087 -0.0777,0.16807 -0.0731,0.16786 0.008,-6.7e-4 0.0143,-0.002 0.02151,-0.003 0.008,-0.001 0.0146,-0.003 0.0218,-0.007 0.008,-0.002 0.0147,-0.007 0.02191,-0.0102 0.008,-0.003 0.0148,-0.008 0.02209,-0.013 0.008,-0.006 0.0149,-0.0102 0.0222,-0.0152 0.008,-0.006 0.015,-0.0115 0.0225,-0.0174 0.008,-0.007 0.0151,-0.013 0.0226,-0.0196 0.008,-0.007 0.0152,-0.0141 0.0228,-0.0217 0.008,-0.008 0.0153,-0.0152 0.0229,-0.0232 0.008,-0.008 0.0153,-0.0161 0.023,-0.0245 0.008,-0.009 0.0154,-0.0169 0.023,-0.0256 0.008,-0.009 0.0154,-0.0176 0.0231,-0.0266 0.008,-0.009 0.0156,-0.0181 0.0232,-0.0275 0.008,-0.009 0.0156,-0.0187 0.0232,-0.0281 0.008,-0.009 0.0157,-0.0188 0.0231,-0.0283 0.008,-0.0102 0.0157,-0.019 0.0232,-0.0284 0.008,-0.0102 0.0156,-0.019 0.0232,-0.0282 0.008,-0.009 0.0156,-0.0187 0.0232,-0.028 0.008,-0.009 0.0155,-0.0183 0.023,-0.0273 0.008,-0.009 0.0154,-0.0177 0.0231,-0.0263 0.008,-0.009 0.0154,-0.0169 0.023,-0.0254 0.008,-0.009 0.0153,-0.0163 0.0227,-0.024 0.008,-0.008 0.0152,-0.0154 0.0226,-0.0226 0.008,-0.008 0.0152,-0.0143 0.0225,-0.0209 0.008,-0.007 0.0151,-0.0131 0.0223,-0.019 0.008,-0.007 0.0149,-0.0115 0.0222,-0.0167 0.008,-0.006 0.0148,-0.0101 0.02201,-0.0143 0.008,-0.003 0.0147,-0.008 0.0218,-0.0115 0.008,-0.003 0.01439,-0.007 0.0215,-0.009 0.008,-0.002 0.0143,-0.003 0.0212,-0.007 0.008,-10e-4 0.0141,-0.002 0.021,-0.002 0.007,-2.3e-4 0.0141,-1.6e-4 0.0208,0.001 0.007,0.002 0.0376,-0.0442 0.0937,-0.13785 0.0564,-0.0937 0.183129,-0.34216 0.277169,-0.53094 0.0941,-0.18874 0.265941,-0.5234 0.38558,-0.80445 0.11963,-0.28099 0.311331,-0.70504 0.44495,-1.0744 0.133622,-0.36937 0.32117,-0.88248 0.458161,-1.33533 0.13697,-0.45284 0.297909,-1.05159 0.42866,-1.58203 0.13081,-0.53039 0.263959,-1.31037 0.349511,-1.91648 0.0855,-0.60613 0.162639,-1.44581 0.189558,-2.11627 0.02691,-0.67045 0.0187,-1.55903 -0.0238,-2.28078 -0.0425,-0.72173 -0.159751,-1.64219 -0.279801,-2.40095 -0.120009,-0.75877 -0.35912,-1.77672 -0.599738,-2.546778 -0.240601,-0.770041 -0.575141,-1.695715 -0.901822,-2.468055 -0.32672,-0.772359 -0.81785,-1.736086 -1.26707,-2.474303 -0.44922,-0.738219 -1.02749,-1.57602 -1.55832,-2.281257 -0.5308,-0.705237 -1.27631,-1.507596 -1.91489,-2.13475 -0.638561,-0.627184 -1.452861,-1.34799 -2.183111,-1.875371 -0.73019,-0.52739 -1.5779,-1.08622 -2.355821,-1.536217 -0.77788,-0.450097 -1.72285,-0.913895 -2.551761,-1.238747 -0.82884,-0.324812 -1.75226,-0.636733 -2.59345,-0.873162 -0.84121,-0.236439 -1.80664,-0.430598 -2.65032,-0.538201 -0.84363,-0.107844 -1.74488,-0.178487 -2.563741,-0.203837 -0.818881,-0.02531 -1.70702,6.8e-4 -2.483001,0.0873 -0.775929,0.0867 -1.57489,0.190407 -2.29419,0.340023 -0.719311,0.149614 -1.444681,0.330503 -2.095931,0.530819 -0.65119,0.200308 -1.29458,0.428988 -1.86825,0.665936 -0.573691,0.236968 -1.134111,0.481317 -1.62317,0.739237 -0.489091,0.257919 -0.948681,0.512481 -1.36093,0.754888 -0.41227,0.24239 -0.795592,0.479779 -1.116931,0.711816 -0.32132,0.232021 -0.61882,0.430228 -0.85995,0.621365 -0.24115,0.191117 -0.446741,0.353103 -0.61406,0.483667 -0.16732,0.130557 -0.29201,0.237389 -0.37672,0.307103 -0.0846,0.06959 -0.13001,0.103923 -0.13358,0.100041 -0.003,-0.003 0.0358,-0.0456 0.11488,-0.122835 0.0793,-0.0773 0.201119,-0.192917 0.364799,-0.331103 0.163661,-0.138224 0.36629,-0.307741 0.605131,-0.506349 0.23879,-0.198586 0.536029,-0.426196 0.86802,-0.649954 0.331979,-0.223808 0.70618,-0.483159 1.11956,-0.732638 0.413411,-0.249478 0.881201,-0.51211 1.37274,-0.77673 0.491511,-0.264619 1.069931,-0.515979 1.647601,-0.758986 0.57767,-0.24302 1.24207,-0.475359 1.89859,-0.680868 0.65651,-0.205537 1.405231,-0.386104 2.130991,-0.539979 0.725751,-0.153886 1.58071,-0.291432 2.367201,-0.344172 0.786509,-0.05281 1.671451,-0.09761 2.498359,-0.07389 0.82693,0.02361 1.753132,0.110775 2.605172,0.218068 0.85203,0.107394 1.84778,0.334694 2.69754,0.572242 0.849741,0.237579 1.79297,0.577701 2.63029,0.904773 0.83733,0.327093 1.800931,0.839512 2.586871,1.29321 0.78592,0.453738 1.722961,1.06168 2.432411,1.629711 0.709461,0.568031 1.50157,1.263058 2.146911,1.895951 0.645339,0.632844 1.38048,1.494566 1.917039,2.206363 0.536571,0.711776 1.178752,1.644612 1.595912,2.41066 0.41717,0.766069 0.87661,1.692224 1.207429,2.471854 0.330822,0.779609 0.69456,1.825058 0.9007,2.613185 0.206151,0.78815 0.41717,1.75426 0.539821,2.52037 0.122711,0.7661 0.201709,1.71908 0.246461,2.44794 0.0448,0.72889 0.0104,1.64651 -0.0151,2.32383 -0.0249,0.67731 -0.150001,1.54197 -0.23374,2.15459 -0.0837,0.61263 -0.269131,1.41294 -0.398001,1.94959 -0.12883,0.5366 -0.340039,1.26902 -0.497858,1.72051 -0.157831,0.45157 -0.350721,0.98386 -0.500412,1.35177 -0.14964,0.36794 -0.343169,0.81213 -0.473669,1.0922 -0.13049,0.28004 -0.300371,0.6371 -0.39985,0.82598 -0.0995,0.18887 -0.175481,0.33395 -0.2263,0.43217 -0.0509,0.0982 -0.0767,0.14954 -0.0756,0.15085 0.003,0.006 0.0449,-0.0553 0.11964,-0.17789 0.0747,-0.12243 0.25766,-0.42092 0.38606,-0.66936 0.12838,-0.24846 0.36019,-0.67006 0.525441,-1.04125 0.16524,-0.37115 0.411779,-0.91922 0.59851,-1.40819 0.18672,-0.48892 0.48044,-1.27926 0.64369,-1.88828 0.163261,-0.60901 0.40974,-1.51535 0.52613,-2.23412 0.11642,-0.71877 0.263401,-1.73221 0.312811,-2.54713 0.0493,-0.81492 0.0518,-1.91495 0.01749,-2.80973 -0.0344,-0.89481 -0.22107,-2.16791 -0.398571,-3.11676 -0.177528,-0.94884 -0.55053,-2.237311 -0.88387,-3.208087 -0.333369,-0.970797 -0.92339,-2.230854 -1.418719,-3.18942 -0.49537,-0.958556 -1.348551,-2.249215 -2.049861,-3.127188 -0.70131,-0.877953 -1.691251,-1.963143 -2.541801,-2.750573 -0.85057,-0.787419 -2.10376,-1.791087 -3.118521,-2.40611 -1.014709,-0.615013 -2.330939,-1.348583 -3.44243,-1.810379 -1.111549,-0.461846 -2.544521,-0.925784 -3.719421,-1.219246 -1.17492,-0.29351 -2.74954,-0.50955 -3.956652,-0.570751 -1.207209,-0.06121 -2.674519,-0.009 -3.864991,0.101145 -1.190479,0.109634 -2.67983,0.429875 -3.80619,0.753398 -1.126319,0.323514 -2.42773,0.829132 -3.46638,1.293858 -1.03862,0.464728 -2.274111,1.182826 -3.169132,1.810419 -0.895019,0.627564 -1.913959,1.422445 -2.66868,2.13658 -0.75468,0.714106 -1.598901,1.604411 -2.199861,2.37264 -0.60093,0.768189 -1.21104,1.659572 -1.69336,2.423151 -0.482329,0.763548 -0.95667,1.718934 -1.28546,2.471482 -0.32878,0.752539 -0.64655,1.60036 -0.870801,2.296057 -0.224269,0.695786 -0.416909,1.478004 -0.55039,2.095544 -0.13348,0.61753 -0.243969,1.30593 -0.304439,1.82607 -0.0605,0.52012 -0.103931,1.04233 -0.132561,1.44793 -0.0286,0.40554 -0.0322,0.80732 -0.0404,1.08749 -0.008,0.28017 -0.002,0.55041 -0.002,0.69526 -6.7e-4,0.14481 -0.006,0.21965 -0.0115,0.21982 -0.008,2.3e-4 -0.0171,-0.0741 -0.0297,-0.2187 -0.0129,-0.14442 -0.0302,-0.41737 -0.0339,-0.69763 -0.003,-0.28022 -0.0104,-0.68677 0.008,-1.09275 0.0182,-0.406 0.0525,-0.93483 0.10393,-1.45561 0.0512,-0.52078 0.15565,-1.22485 0.28117,-1.84356 0.12553,-0.6187 0.31516,-1.41926 0.53255,-2.116566 0.217411,-0.697266 0.53552,-1.565339 0.858471,-2.319607 0.32294,-0.754238 0.80653,-1.740686 1.283959,-2.506324 0.477461,-0.765639 1.09594,-1.678534 1.692742,-2.448713 0.596839,-0.77014 1.46096,-1.690683 2.21224,-2.40678 0.75128,-0.716056 1.795361,-1.538468 2.68751,-2.168001 0.892191,-0.629504 2.168482,-1.377823 3.204811,-1.8445 1.036301,-0.466646 2.371732,-0.990458 3.495992,-1.315849 1.124319,-0.325392 2.572699,-0.596743 3.755059,-0.764209 1.182362,-0.167447 2.794172,-0.180487 3.999992,-0.121165 1.20567,0.0591 2.837211,0.2753 4.01097,0.566682 1.173651,0.291361 2.650101,0.761678 3.760613,1.221195 1.110469,0.459519 2.470079,1.205517 3.48412,1.817978 1.013979,0.612514 2.32256,1.642752 3.172961,2.427381 0.850419,0.784632 1.8785,1.895262 2.58018,2.770195 0.70167,0.874953 1.492701,2.122949 2.03564,3.053354 0.54296,0.930406 1.176961,2.361281 1.512381,3.328886 0.335399,0.967586 0.73398,2.296373 0.914469,3.242163 0.180501,0.94575 0.335672,2.13179 0.417472,3.02076 0.0819,0.88898 0.05859,2.15921 0.0142,2.97172 -0.0445,0.81252 -0.180029,1.86092 -0.290479,2.57783 -0.110419,0.7169 -0.347759,1.66144 -0.504009,2.26928 -0.156281,0.60782 -0.443601,1.43975 -0.622291,1.92848 -0.17872,0.48871 -0.41893,1.05931 -0.575151,1.43102 -0.15626,0.37168 -0.38205,0.81783 -0.500269,1.06771 -0.11821,0.24989 -0.29548,0.57529 -0.359181,0.70013 -0.0637,0.12489 -0.0927,0.18818 -0.08451,0.18593 0.01601,-0.006 0.0743,-0.0823 0.17193,-0.22871 0.0978,-0.14644 0.308861,-0.50843 0.46821,-0.79604 0.15965,-0.28747 0.419081,-0.79198 0.621722,-1.21698 0.202669,-0.42502 0.551299,-1.22176 0.751038,-1.78937 0.19974,-0.56761 0.52327,-1.50739 0.69103,-2.20943 0.167752,-0.70204 0.400752,-1.78159 0.510802,-2.60553 0.1102,-0.8239 0.239619,-2.18435 0.224329,-3.11415 -0.0155,-0.92974 -0.09569,-2.22069 -0.212659,-3.23254 -0.11707,-1.01185 -0.480951,-2.668017 -0.815701,-3.712975 -0.335061,-1.04482 -0.916701,-2.545537 -1.43128,-3.592207 -0.514549,-1.046699 -1.462891,-2.629128 -2.209471,-3.602236 -0.74655,-0.973116 -1.909551,-2.273974 -2.82944,-3.158767 -0.91991,-0.884823 -2.49562,-2.066318 -3.609331,-2.769985 -1.113642,-0.703627 -2.900022,-1.613311 -4.160272,-2.090529 -1.2604,-0.477298 -3.196461,-1.044179 -4.54484,-1.268388 -1.348331,-0.224249 -3.354321,-0.403365 -4.727951,-0.365962 -1.37345,0.0375 -3.363761,0.253808 -4.700831,0.547009 -1.33703,0.293232 -3.23209,0.886693 -4.474422,1.418183 -1.24249,0.53151 -2.973021,1.464186 -4.067411,2.205525 -1.094369,0.741345 -2.60618,1.956223 -3.506051,2.867455 -0.899859,0.911196 -2.015779,2.239966 -2.73864,3.234343 -0.72287,0.994498 -1.641161,2.588397 -2.12295,3.651218 -0.481801,1.062819 -1.049261,2.560077 -1.345611,3.614576 -0.29639,1.05456 -0.58263,2.54079 -0.708269,3.54714 -0.125661,1.00637 -0.179891,2.42235 -0.158121,3.34537 0.0216,0.92305 0.13368,2.2316 0.27268,3.04237 0.13893,0.81083 0.35732,1.84581 0.54497,2.53245 0.18769,0.68669 0.48347,1.58021 0.6937,2.13227 0.210291,0.5521 0.52199,1.30555 0.726431,1.71668 0.204409,0.41116 0.44169,0.8903 0.596461,1.16674 0.154708,0.27642 0.273408,0.48827 0.353359,0.63105 0.08,0.14276 0.203449,0.3359 0.203449,0.3359 l -0.78468,-1.38495 -0.62593,-1.30385 -0.54751,-1.33798 -0.507159,-1.50626 -0.364981,-1.39868 -0.28203,-1.41808 -0.19807,-1.43302 -0.106191,-1.59142 -0.006,-1.44999 0.081,-1.44954 0.19977,-1.59357 0.27598,-1.43109 0.36183,-1.414251 0.50281,-1.540167 0.55113,-1.358771 0.63227,-1.325511 0.711021,-1.287578 0.786679,-1.244986 0.968971,-1.32028 0.946509,-1.133143 1.01271,-1.076001 1.198601,-1.120572 1.14773,-0.933414 1.20082,-0.865072 1.249661,-0.79414 1.441851,-0.78509 1.34317,-0.625123 1.37725,-0.547431 1.56313,-0.50663 1.437642,-0.365853 1.456669,-0.283551 1.633981,-0.211869 1.483209,-0.0935 1.486772,-0.009 1.485539,0.0773 1.644402,0.201818 1.46476,0.271561 1.446769,0.356893 1.585441,0.50605 1.387972,0.545659 1.353098,0.626343 1.313522,0.704697 1.41378,0.882943 1.20761,0.870132 1.15254,0.939316 1.09335,1.005119 1.142111,1.202925 0.945479,1.139562 0.874961,1.192435 0.88859,1.390753 0.70557,1.295828 0.62744,1.334219 0.54759,1.368213 0.50286,1.566498 0.36065,1.428569 0.276271,1.44773 0.197331,1.63719 0.0811,1.47455 -0.007,1.47839 -0.118351,1.65557 -0.2055,1.4698 -0.29323,1.45731 -0.38045,1.43979 -0.5441,1.58872 c 0,0 1.586091,-3.95728 1.78403,-5.47563 0.1368,-1.0495 0.22079,-2.81081 0.1976,-4.07269 -0.0231,-1.26206 -0.3278,-3.58929 -0.701089,-4.983448 -0.37338,-1.393981 -1.144281,-3.575853 -1.850701,-5.01425 -0.70644,-1.438313 -2.193211,-3.671676 -3.319901,-4.999407 -1.12663,-1.3278 -3.476451,-3.46983 -5.218602,-4.57156 -1.74182,-1.101682 -4.84876,-2.590809 -7.037421,-3.18014 -2.188451,-0.589313 -5.922171,-1.04047 -8.268312,-0.865803 -2.346061,0.174707 -6.011402,0.954816 -8.138701,1.86424 -2.127372,0.909373 -5.385883,2.839286 -7.084792,4.397225 -1.69872,1.557929 -3.903171,4.196689 -4.905702,5.919933 -1.00248,1.723264 -2.113511,4.379075 -2.50448,5.774136 -0.391011,1.395184 -0.6771,3.080234 -0.69198,3.201624 -0.0148,0.12141 -0.12447,0.87066 -0.19966,1.70755 -0.0748,0.83695 -0.10326,2.51135 -0.0398,3.71858 0.0636,1.20724 0.416721,3.29882 0.764241,4.70011 0.347569,1.40116 1.252331,3.72041 1.95515,5.06357 0.70282,1.34313 2.037731,3.31216 3.035841,4.55356 0.998021,1.24139 2.996751,3.03605 4.274612,3.99714 1.277869,0.96109 3.61759,2.31492 5.030351,2.90619 1.412629,0.59125 3.68328,1.32326 5.04158,1.60451 1.35819,0.28118 3.620252,0.53369 4.933683,0.55212 1.313398,0.0184 3.51209,-0.1337 4.70444,-0.34196 1.192461,-0.20818 3.006261,-0.65574 4.0324,-0.98717 1.026141,-0.33142 2.633152,-1.01054 3.458212,-1.41245 0.825079,-0.40188 1.97806,-1.08109 2.60065,-1.4613 1.980721,-1.71356 1.241831,-1.35279 2.449701,-3.07264 1.78321,-2.49116 1.50747,-6.4061 0.435889,-7.32025 -1.07153,-0.91444 -4.586191,-0.89111 -8.765021,1.6337 -0.592641,0.39124 -0.82232,0.56501 -1.618801,0.98932 -0.79649,0.42427 -0.98169,0.53252 -1.98935,0.89977 -1.007611,0.36724 -1.368901,0.46903 -2.561231,0.72449 -1.192311,0.25547 -1.44607,0.26102 -2.788161,0.29498 -1.3421,0.034 -1.68985,-0.008 -3.111931,-0.24223 -1.42212,-0.23438 -1.674879,-0.25989 -3.202089,-0.90977 -1.527221,-0.64991 -1.958972,-0.75734 -3.381751,-1.83715 -1.422802,-1.07983 -1.888051,-1.39825 -3.027691,-2.82132 -1.13963,-1.42312 -1.461461,-1.94442 -2.206392,-3.55382 -0.744949,-1.60937 -0.909138,-2.02462 -1.16716,-3.7542 -0.258029,-1.72958 -0.36484,-2.28904 -0.22539,-3.78906 0.139421,-1.50001 0.170102,-2.03214 0.47804,-3.075 0.307941,-1.042857 0.425332,-1.426453 0.457591,-1.509146 0.0323,-0.0827 0.107239,-0.386335 0.440841,-1.142713 0.333648,-0.7564 0.491099,-1.231656 1.18091,-2.316697 0.689781,-1.085011 1.06777,-1.684294 2.1913,-2.852987 1.123541,-1.168695 1.78327,-1.742585 3.312861,-2.708222 1.52959,-0.965637 2.41307,-1.430524 4.304711,-1.975285 1.89168,-0.54481 3.09643,-0.81762 5.136911,-0.81222 2.040431,0.0061 3.40688,0.109083 5.343841,0.697416 1.93678,0.588273 3.311761,1.204356 4.956801,2.202223 1.64488,0.997869 2.754732,1.939804 3.979121,3.321406 1.22435,1.38162 2.09089,2.64205 2.887071,4.170756 0.79601,1.528717 1.268489,2.927719 1.634921,4.439849 0.009,-0.0917 0.0103,-0.21889 0.002,-0.37984 -0.008,-0.16097 -0.024,-0.33165 -0.0592,-0.55638 -0.0353,-0.22469 -0.06589,-0.46141 -0.133269,-0.74334 -0.06749,-0.28197 -0.126039,-0.5762 -0.22948,-0.90873 -0.10349,-0.332736 -0.201669,-0.674898 -0.344619,-1.051054 -0.142691,-0.376284 -0.290641,-0.755668 -0.475211,-1.168692 -0.18457,-0.413057 -0.390169,-0.818332 -0.618271,-1.261229 -0.228109,-0.442857 -0.48352,-0.842502 -0.778858,-1.294479 -0.295372,-0.452026 -0.580072,-0.872672 -0.944051,-1.321269 -0.36398,-0.448577 -0.73398,-0.877383 -1.143431,-1.33064 -0.40944,-0.453268 -0.83342,-0.827641 -1.308991,-1.256158 C 64.098291,90.700282 63.6319,90.348761 63.094501,89.956535 62.557121,89.564302 62.05046,89.246418 61.45755,88.900946 60.86465,88.555491 60.32293,88.279612 59.68273,87.98975 59.042549,87.699801 58.470769,87.477222 57.793,87.249653 57.11526,87.022095 56.520669,86.86306 55.816118,86.702604 c -0.704549,-0.160439 -1.311439,-0.24923 -2.03142,-0.339995 -0.720019,-0.0908 -1.32691,-0.106613 -2.050861,-0.127203 -0.72395,-0.02052 -1.317909,0.0353 -2.034489,0.0835 -0.716571,0.04839 -1.220101,0.132037 -1.912182,0.27884 -0.69211,0.146816 -1.234418,0.259881 -1.89496,0.46643 -0.66056,0.206527 -1.16295,0.366632 -1.782789,0.626492 -0.619811,0.25988 -1.076281,0.453077 -1.647242,0.758609 -0.570969,0.305571 -0.979439,0.515919 -1.49466,0.858222 -0.51517,0.342292 -0.93281,0.636324 -1.40451,0.983086 -0.47169,0.346774 -0.747209,0.603265 -1.15514,0.968557 -0.40793,0.365264 -0.649771,0.583702 -0.99172,0.955806 -0.34193,0.372135 -0.597771,0.650605 -0.89198,1.003247 -0.294241,0.352624 -0.491871,0.613383 -0.73871,0.939336 -0.246831,0.325903 -0.392971,0.556091 -0.593561,0.848022 -0.20059,0.29189 -0.304309,0.479068 -0.46064,0.729538 -0.156411,0.250409 -0.229099,0.383254 -0.344041,0.584831 l -1.9e-4,-7.9e-5"
       id="path55"
       style="stroke-width:0.375621"
       inkscape:transform-center-x="0.77110052"
       inkscape:transform-center-y="1.4703516" />
    <text
       xml:space="preserve"
       style="font-style:normal;font-weight:normal;font-size:43.1324px;line-height:1.25;font-family:sans-serif;fill:#000000;fill-opacity:1;stroke:none;stroke-width:0.224647"
       x="39.32288"
       y="119.95844"
       id="text70618"
       transform="matrix(1.0481423,0.02099476,-0.02307607,0.9536067,0,0)"><tspan
         sodipodi:role="line"
         id="tspan70616"
         x="39.32288"
         y="119.95844"
         style="font-style:normal;font-variant:normal;font-weight:normal;font-stretch:normal;font-size:43.1324px;font-family:Ubuntu;-inkscape-font-specification:Ubuntu;stroke-width:0.224647">μ</tspan></text>
    <text
       xml:space="preserve"
       transform="matrix(0.26458333,0,0,0.26458333,25.595518,80.923795)"
       id="text25105"
       style="font-style:normal;font-weight:normal;font-size:37.79527607px;line-height:0px;font-family:Uroob;white-space:pre;shape-inside:url(#rect25107);fill:#000000;fill-opacity:1;stroke:none;-inkscape-font-specification:Uroob;font-stretch:normal;font-variant:normal" />
    <text
       xml:space="preserve"
       style="font-style:normal;font-weight:normal;font-size:18.6407px;line-height:0;font-family:sans-serif;letter-spacing:1.45071px;white-space:pre;inline-size:89.8628;fill:#000000;fill-opacity:1;stroke:none;stroke-width:0.264583"
       x="85.507111"
       y="99.709396"
       id="text34441"
       transform="matrix(1.9421943,0,0,1.7126597,-87.250345,-55.875647)"><tspan
         x="85.507111"
         y="99.709396"
         id="tspan16307"><tspan
           style="line-height:0px;font-family:Uroob;-inkscape-font-specification:Uroob"
           id="tspan16305">MUSHIN</tspan></tspan></text>
  </g>
</svg>
