<?xml version="1.0" encoding="UTF-8" standalone="no"?>
<!-- Created with Inkscape (http://www.inkscape.org/) -->

<svg
   width="475"
   height="252"
   viewBox="0 0 475 252"
   version="1.1"
   id="svg5"
   sodipodi:docname="mushin-logo.svg"
   inkscape:version="1.1.2 (0a00cf5339, 2022-02-04)"
   xmlns:inkscape="http://www.inkscape.org/namespaces/inkscape"
   xmlns:sodipodi="http://sodipodi.sourceforge.net/DTD/sodipodi-0.dtd"
   xmlns="http://www.w3.org/2000/svg"
   xmlns:svg="http://www.w3.org/2000/svg">
  <sodipodi:namedview
     id="namedview7"
     pagecolor="#ffffff"
     bordercolor="#666666"
     borderopacity="1.0"
     inkscape:pageshadow="2"
     inkscape:pageopacity="0.0"
     inkscape:pagecheckerboard="true"
     inkscape:document-units="px"
     showgrid="false"
     fit-margin-top="20"
     fit-margin-left="20"
     fit-margin-right="20"
     fit-margin-bottom="20"
     inkscape:zoom="1.6317073"
     inkscape:cx="274.25262"
     inkscape:cy="119.2003"
     inkscape:window-width="1920"
     inkscape:window-height="1136"
     inkscape:window-x="0"
     inkscape:window-y="0"
     inkscape:window-maximized="1"
     inkscape:current-layer="layer1"
     lock-margins="true"
     width="475px"
     borderlayer="false"
     showborder="true"
     inkscape:showpageshadow="false" />
  <defs
     id="defs2">
    <rect
       x="234.40268"
       y="202.1057"
       width="64.146286"
       height="48.463425"
       id="rect69512" />
    <rect
       x="246.10197"
       y="213.884"
       width="63.847042"
       height="51.369698"
       id="rect52867" />
    <rect
       x="387.40576"
       y="180.61507"
       width="337.69269"
       height="103.69459"
       id="rect2335" />
  </defs>
  <g
     inkscape:label="Layer 1"
     inkscape:groupmode="layer"
     id="layer1"
     transform="translate(-135.36574,-111.71665)">
    <path
       fill="#000000"
       d="m 191.57635,196.86664 c -0.0148,0.002 0.0918,-0.24277 0.31151,-0.7129 0.21972,-0.4701 0.32108,-0.76077 0.80479,-1.64718 0.48268,-0.88705 0.78711,-1.62972 1.55754,-2.87747 0.77056,-1.24783 1.36231,-2.35539 2.43731,-3.90889 1.07494,-1.55333 2.02294,-2.93108 3.41259,-4.73506 1.38962,-1.80399 2.43028,-3.1176 4.23481,-5.03021 1.80456,-1.9126 3.21221,-3.44154 5.43628,-5.37489 2.22425,-1.93348 4.08176,-3.51153 6.71489,-5.38241 2.63311,-1.8707 4.97473,-3.32967 7.99207,-5.06028 3.01734,-1.73059 5.56294,-2.89965 8.99497,-4.25608 3.43206,-1.35659 6.35895,-2.43336 10.12382,-3.32377 3.76487,-0.89042 7.06652,-1.69842 11.0654,-2.04743 3.99902,-0.34894 7.75311,-0.51418 11.88157,-0.4692 4.12849,0.0449 7.88557,0.62049 12.04185,1.29062 4.15628,0.67005 7.96013,1.84033 12.01528,3.14546 4.05501,1.30512 7.7885,3.08024 11.61377,4.99804 3.8253,1.91779 7.38535,4.25874 10.86307,6.73117 3.47787,2.47247 6.74017,5.35648 9.77378,8.29467 3.03356,2.93835 5.88172,6.30664 8.40062,9.60067 2.51892,3.29402 4.87864,7.04271 6.83981,10.57097 1.96117,3.52824 3.80799,7.53443 5.19408,11.17116 1.38621,3.63693 2.74579,7.78126 3.56358,11.40238 0.81793,3.62117 1.52509,7.59813 1.96981,11.06546 0.44469,3.4673 0.68341,7.59236 0.63358,10.83716 -0.0497,3.24467 -0.19955,6.92167 -0.5284,9.8617 -0.32889,2.93986 -0.82764,6.34074 -1.373,8.92024 -0.54532,2.57966 -1.23801,5.29762 -1.81839,7.50321 -0.57888,2.20579 -1.55075,4.85714 -2.20649,6.62977 -0.65584,1.7728 -1.44011,3.6914 -2.01342,5.04074 -0.57336,1.34928 -1.27055,2.84299 -1.70619,3.75207 -0.43567,0.9092 -0.76553,1.60606 -0.98193,2.0754 -0.21629,0.46937 -0.31942,0.71118 -0.30142,0.71035 0.0293,-0.003 0.0588,-0.009 0.0887,-0.0154 0.0296,-0.007 0.0596,-0.0172 0.0897,-0.0293 0.03,-0.0113 0.06,-0.0262 0.0905,-0.0418 0.0299,-0.016 0.0607,-0.034 0.0913,-0.0535 0.0309,-0.0199 0.0614,-0.0409 0.0922,-0.0645 0.031,-0.0233 0.0619,-0.048 0.0928,-0.0742 0.031,-0.0265 0.0624,-0.0541 0.0934,-0.0832 0.0312,-0.029 0.0625,-0.0597 0.0941,-0.0911 0.0297,-0.0326 0.0628,-0.0644 0.0944,-0.0982 0.0295,-0.0348 0.0632,-0.0683 0.0947,-0.10431 0.0294,-0.0369 0.0634,-0.072 0.0952,-0.10925 0.03,-0.038 0.0636,-0.0751 0.0954,-0.11342 0.0294,-0.0395 0.0637,-0.0773 0.0956,-0.11662 0.0299,-0.0403 0.0637,-0.0791 0.0961,-0.11876 0.0302,-0.0407 0.0642,-0.0801 0.0958,-0.12 0.0302,-0.0409 0.0642,-0.0803 0.096,-0.12027 0.0302,-0.0409 0.0638,-0.0804 0.0958,-0.11966 0.0299,-0.0406 0.0637,-0.0792 0.0954,-0.11813 0.0296,-0.0399 0.0636,-0.0779 0.0953,-0.11572 0.0293,-0.0392 0.0634,-0.0754 0.0948,-0.11211 0.0297,-0.0376 0.0632,-0.0725 0.0948,-0.10756 0.0291,-0.0362 0.0629,-0.069 0.0939,-0.10241 0.0293,-0.0341 0.0623,-0.065 0.0937,-0.0958 0.0292,-0.0318 0.0621,-0.0603 0.0929,-0.0887 0.0307,-0.0282 0.0618,-0.0549 0.0925,-0.0803 0.0308,-0.0253 0.0611,-0.0491 0.0917,-0.0709 0.0307,-0.022 0.0606,-0.0423 0.0907,-0.0611 0.0303,-0.0183 0.06,-0.035 0.0897,-0.0498 0.0295,-0.0145 0.0593,-0.0274 0.0886,-0.0377 0.0295,-0.0102 0.0587,-0.0186 0.0878,-0.0247 0.0295,-0.006 0.0578,-0.01 0.0866,-0.0106 0.0286,-0.001 0.0573,-6.8e-4 0.0856,0.005 0.0241,0.011 0.15484,-0.18696 0.38671,-0.58339 0.23207,-0.39625 0.75436,-1.44792 1.14172,-2.24674 0.38766,-0.79873 1.0954,-2.21497 1.58828,-3.40418 0.49281,-1.18918 1.28238,-2.98357 1.83281,-4.5466 0.5504,-1.56317 1.32292,-3.73452 1.88719,-5.65079 0.56422,-1.91626 1.22722,-4.45008 1.76566,-6.69477 0.53889,-2.24445 1.0874,-5.54517 1.43976,-8.11004 0.35238,-2.56487 0.66994,-6.11819 0.78083,-8.95546 0.11094,-2.8371 0.0768,-6.59735 -0.0984,-9.65157 -0.17507,-3.05422 -0.65803,-6.94933 -1.15249,-10.1602 -0.49449,-3.21088 -1.47933,-7.51861 -2.47046,-10.77721 -0.99113,-3.25861 -2.36908,-7.17589 -3.71478,-10.44423 -1.34582,-3.26839 -3.36879,-7.34667 -5.21926,-10.47059 -1.85047,-3.12391 -4.2324,-6.66923 -6.4189,-9.65363 -2.18649,-2.9844 -5.25736,-6.37972 -7.88776,-9.03364 -2.63037,-2.65407 -5.98463,-5.7044 -8.99259,-7.93613 -3.0078,-2.23171 -6.49967,-4.59661 -9.70404,-6.50083 -3.20425,-1.90467 -7.09671,-3.86733 -10.51106,-5.24199 -3.41422,-1.37455 -7.21786,-2.69455 -10.68286,-3.69505 -3.46513,-1.00052 -7.44184,-1.82209 -10.91711,-2.27747 -3.47506,-0.45628 -7.18751,-0.75533 -10.56052,-0.86262 -3.37302,-0.10719 -7.03149,0.003 -10.2278,0.36973 -3.19629,0.36714 -6.48727,0.80576 -9.45018,1.43884 -2.96294,0.63318 -5.95086,1.39864 -8.63344,2.2463 -2.68243,0.8477 -5.33263,1.81535 -7.69569,2.81809 -2.36308,1.00281 -4.67154,2.03679 -6.68613,3.12822 -2.01457,1.09146 -3.90767,2.1687 -5.6058,3.19448 -1.69822,1.02576 -3.27723,2.03032 -4.60085,3.01221 -1.32359,0.9819 -2.54908,1.82065 -3.5423,2.62949 -0.99331,0.80874 -1.84013,1.49421 -2.52938,2.04672 -0.68929,0.55251 -1.20284,1.00462 -1.55169,1.29958 -0.34883,0.29498 -0.53562,0.43972 -0.55029,0.42322 -0.0153,-0.0151 0.14713,-0.19269 0.47328,-0.51967 0.32629,-0.32685 0.82842,-0.81635 1.50261,-1.40119 0.67412,-0.58486 1.50882,-1.30221 2.49257,-2.1426 0.98369,-0.8404 2.20804,-1.80356 3.5756,-2.75055 1.36744,-0.94706 2.90885,-2.04456 4.61167,-3.10022 1.70284,-1.05575 3.62976,-2.16713 5.65447,-3.28697 2.02467,-1.1198 4.40721,-2.18346 6.78677,-3.21175 2.37956,-1.02841 5.11629,-2.01161 7.82058,-2.88128 2.70431,-0.86978 5.78843,-1.63394 8.77788,-2.28508 2.98944,-0.65114 6.51125,-1.23323 9.75095,-1.45648 3.23973,-0.2234 6.88495,-0.41249 10.29113,-0.31239 3.40617,0.10016 7.22139,0.46847 10.73107,0.92278 3.5097,0.45427 7.61129,1.41634 11.11167,2.42163 3.50019,1.00534 7.38546,2.44464 10.83455,3.82876 3.44908,1.38414 7.4183,3.55258 10.65573,5.47247 3.23739,1.92011 7.09719,4.49277 10.01952,6.89651 2.92232,2.40374 6.18515,5.34491 8.84347,8.02316 2.65819,2.67805 5.68638,6.32457 7.89661,9.33668 2.21022,3.01209 4.8554,6.95956 6.57376,10.2013 1.71839,3.24173 3.61088,7.16104 4.9736,10.46019 1.36272,3.29913 2.86109,7.72319 3.71013,11.05835 0.8492,3.33519 1.71845,7.42358 2.22364,10.66548 0.50524,3.24193 0.8309,7.27474 1.01524,10.35914 0.18425,3.08437 0.0403,6.9675 -0.0625,9.83371 -0.10287,2.86618 -0.61783,6.52517 -0.96276,9.11769 -0.34494,2.59251 -1.10864,5.97912 -1.63946,8.25005 -0.53069,2.27081 -1.40068,5.37016 -2.0508,7.2808 -0.65006,1.91082 -1.44471,4.16338 -2.06118,5.7204 -0.61647,1.55702 -1.41366,3.43659 -1.9512,4.62176 -0.53748,1.18511 -1.23729,2.6961 -1.64701,3.49534 -0.40963,0.79924 -0.72286,1.41319 -0.9322,1.82885 -0.20967,0.41557 -0.31572,0.63275 -0.31133,0.63834 0.0179,0.0208 0.1847,-0.23461 0.49272,-0.75276 0.30789,-0.51829 1.06137,-1.78118 1.59028,-2.83263 0.52882,-1.05142 1.48367,-2.83549 2.16433,-4.40615 0.68071,-1.57063 1.69627,-3.88998 2.46542,-5.95916 0.7691,-2.06902 1.97901,-5.41351 2.65148,-7.99066 0.67243,-2.57716 1.6877,-6.41256 2.1672,-9.45419 0.47946,-3.04165 1.08495,-7.33025 1.28841,-10.77878 0.20341,-3.44854 0.21332,-8.10349 0.0719,-11.89001 -0.14141,-3.78653 -0.91061,-9.174 -1.64178,-13.18931 -0.73121,-4.01517 -2.26767,-9.46764 -3.64072,-13.57575 -1.3732,-4.10817 -3.80364,-9.4404 -5.84396,-13.49675 -2.04049,-4.05638 -5.55491,-9.51814 -8.4437,-13.23342 -2.88879,-3.71528 -6.96658,-8.3075 -10.47018,-11.63965 -3.50361,-3.33215 -8.6657,-7.57943 -12.84562,-10.18209 -4.17981,-2.60249 -9.60155,-5.70679 -14.17992,-7.66102 -4.57866,-1.95432 -10.48136,-3.91759 -15.32091,-5.15945 -4.83967,-1.24207 -11.32582,-2.1563 -16.29808,-2.41522 -4.97272,-0.25896 -11.01678,-0.0365 -15.92051,0.42798 -4.90379,0.464 -11.03872,1.81916 -15.67832,3.1882 -4.63958,1.36904 -10.00027,3.50866 -14.27857,5.47525 -4.27829,1.9666 -9.36745,5.0054 -13.05421,7.66116 -3.68673,2.65575 -7.8839,6.01946 -10.99274,9.04148 -3.10866,3.02192 -6.58618,6.78947 -9.06154,10.04036 -2.47533,3.25073 -4.98853,7.02287 -6.9752,10.25408 -1.98685,3.23117 -3.94073,7.27407 -5.29506,10.45866 -1.35428,3.18459 -2.66323,6.77225 -3.58696,9.71637 -0.92377,2.94427 -1.71736,6.25456 -2.26711,8.86776 -0.54991,2.6133 -1.00501,5.52637 -1.25404,7.72744 -0.24898,2.20093 -0.42851,4.41095 -0.54609,6.12721 -0.11765,1.71624 -0.1326,3.41637 -0.1662,4.60198 -0.0341,1.18566 -0.0111,2.32916 -0.0133,2.94209 -0.003,0.61291 -0.0184,0.92957 -0.0483,0.93028 -0.03,9.4e-4 -0.0709,-0.3144 -0.12191,-0.92557 -0.0512,-0.61113 -0.12478,-1.76614 -0.13923,-2.95207 -0.0142,-1.18589 -0.0439,-2.90629 0.0311,-4.62429 0.075,-1.71801 0.21672,-3.95592 0.42806,-6.15967 0.21131,-2.20375 0.64113,-5.18323 1.1582,-7.80144 0.5171,-2.61822 1.2982,-6.00596 2.19368,-8.95679 0.8955,-2.95066 2.20586,-6.62408 3.53612,-9.81599 1.33024,-3.19173 3.32225,-7.36606 5.28888,-10.60605 1.96666,-3.23998 4.51438,-7.10314 6.97267,-10.36224 2.45844,-3.25907 6.0179,-7.15454 9.11257,-10.18489 3.09464,-3.03019 7.39535,-6.51037 11.07031,-9.17436 3.67511,-2.66396 8.93232,-5.83066 13.20107,-7.80543 4.26873,-1.97477 9.76954,-4.19142 14.40064,-5.56836 4.63125,-1.37693 10.59737,-2.52524 15.46768,-3.23393 4.87029,-0.70855 11.50957,-0.76377 16.47655,-0.51284 4.96636,0.25086 11.68696,1.16498 16.5219,2.3981 4.83435,1.23294 10.91615,3.22318 15.49046,5.16776 4.5743,1.94457 10.17473,5.10135 14.35167,7.69321 4.17677,2.59191 9.56708,6.95166 13.07004,10.27196 3.50297,3.3203 7.73781,8.02024 10.62811,11.72274 2.8903,3.70249 6.14865,8.98369 8.38519,12.92092 2.23655,3.93725 4.84806,9.99229 6.22968,14.08691 1.38163,4.09461 3.02342,9.7178 3.76691,13.72001 0.74351,4.00223 1.38262,9.02127 1.71962,12.78309 0.33702,3.76182 0.24101,9.13714 0.058,12.57552 -0.18302,3.43839 -0.74158,7.87488 -1.19657,10.90869 -0.45491,3.03364 -1.43247,7.03075 -2.0761,9.60291 -0.64373,2.57212 -1.82719,6.09266 -2.56331,8.16077 -0.73615,2.06811 -1.72562,4.48283 -2.36916,6.05569 -0.64355,1.57285 -1.57366,3.46086 -2.06062,4.51829 -0.4871,1.05745 -1.21712,2.43457 -1.47956,2.96273 -0.26226,0.52837 -0.38167,0.7963 -0.34809,0.78681 0.066,-0.019 0.30591,-0.3479 0.70822,-0.96779 0.40256,-0.61968 1.27222,-2.15163 1.92868,-3.36863 0.6575,-1.21647 1.72615,-3.35146 2.56093,-5.14991 0.83482,-1.79859 2.27091,-5.17012 3.09366,-7.57213 0.82272,-2.40202 2.1554,-6.37885 2.84643,-9.3497 0.69093,-2.97086 1.65069,-7.5393 2.10409,-11.02595 0.45367,-3.48657 0.98704,-9.24354 0.92404,-13.17815 -0.0633,-3.93453 -0.39477,-9.39746 -0.87605,-13.67934 -0.48223,-4.28179 -1.98102,-11.29027 -3.35996,-15.71225 -1.38016,-4.42162 -3.77607,-10.77222 -5.89562,-15.20152 -2.11954,-4.42932 -6.02595,-11.12566 -9.10123,-15.24357 -3.07508,-4.11803 -7.86577,-9.62291 -11.65489,-13.36717 -3.78926,-3.74429 -10.27984,-8.74403 -14.86749,-11.72176 -4.5872,-2.97763 -11.94561,-6.82707 -17.1368,-8.84656 -5.19177,-2.01978 -13.16673,-4.41862 -18.7209,-5.36745 -5.55395,-0.94892 -13.81704,-1.70694 -19.47523,-1.54867 -5.65745,0.15905 -13.85586,1.07409 -19.36344,2.31482 -5.50745,1.24089 -13.31353,3.75219 -18.43087,6.00138 -5.11799,2.24919 -12.24636,6.19602 -16.75431,9.33318 -4.50794,3.13716 -10.73534,8.27814 -14.44204,12.13421 -3.70666,3.85591 -8.3033,9.47897 -11.28091,13.68691 -2.97756,4.20844 -6.76019,10.95334 -8.74473,15.45098 -1.98461,4.49748 -4.32205,10.8335 -5.5428,15.29589 -1.22081,4.46267 -2.39994,10.75185 -2.91752,15.01051 -0.51755,4.25868 -0.7409,10.25076 -0.65128,14.15676 0.0895,3.90599 0.55065,9.44352 1.12318,12.87451 0.5723,3.4311 1.47189,7.81087 2.24485,10.71663 0.77313,2.90582 1.99147,6.68694 2.85748,9.02317 0.86617,2.33628 2.15015,5.52462 2.99226,7.26447 0.84202,1.73993 1.81942,3.76752 2.45696,4.93724 0.63718,1.16984 1.12617,2.06632 1.45553,2.67056 0.32959,0.60416 0.83807,1.42141 0.83807,1.42141 l -3.23231,-5.8607 -2.57823,-5.51764 -2.25531,-5.66182 -2.08905,-6.37422 -1.50346,-5.91885 -1.16169,-6.00089 -0.81585,-6.06413 -0.43741,-6.73448 -0.0219,-6.13609 0.33325,-6.13398 0.82285,-6.74352 1.13687,-6.05594 1.49049,-5.98468 2.07105,-6.51764 2.27026,-5.74995 2.60436,-5.60919 2.9288,-5.4487 3.24044,-5.26841 3.99141,-5.58706 3.89879,-4.79515 4.17153,-4.55334 4.93722,-4.742 4.72767,-3.94997 4.94639,-3.66068 5.14756,-3.36057 5.93916,-3.32232 5.53282,-2.64539 5.67313,-2.31658 6.43877,-2.1439 5.92182,-1.54819 6.00033,-1.19994 6.7306,-0.8965 6.10954,-0.39598 6.1243,-0.0356 6.11919,0.32676 6.77352,0.85403 6.03358,1.14922 5.9595,1.51031 6.53067,2.14151 5.71722,2.30904 5.57369,2.65049 5.41061,2.98203 5.82354,3.73643 4.9744,3.6822 4.7475,3.97484 4.50368,4.25344 4.70454,5.09045 3.89465,4.82237 3.60402,5.04605 3.66026,5.88521 2.90637,5.4836 2.5845,5.64606 2.25558,5.78991 2.07145,6.62906 1.48554,6.04527 1.13804,6.12642 0.81278,6.92817 0.33374,6.23991 -0.0255,6.25615 -0.48733,7.00583 -0.84651,6.21982 -1.20789,6.16698 -1.56712,6.09277 -2.24121,6.72303 c 0,0 6.53334,-16.74613 7.34866,-23.17142 0.56354,-4.44114 0.90948,-11.89451 0.8139,-17.23441 -0.0956,-5.34071 -1.35023,-15.18898 -2.88785,-21.08867 -1.53798,-5.89898 -4.71347,-15.13209 -7.62332,-21.21895 -2.90992,-6.08657 -9.03418,-15.53756 -13.67519,-21.15615 -4.64077,-5.61884 -14.32007,-14.68335 -21.49627,-19.34562 -7.17484,-4.66194 -19.9729,-10.96353 -28.98829,-13.45745 -9.01461,-2.4938 -24.39437,-4.40302 -34.0585,-3.66379 -9.66384,0.73926 -24.76195,4.04051 -33.52464,7.88895 -8.76297,3.84821 -22.18537,12.01506 -29.18339,18.60781 -6.99735,6.59276 -16.0778,17.75927 -20.20736,25.05156 -4.1294,7.29235 -8.70588,18.53102 -10.31641,24.43465 -1.61061,5.90396 -2.7891,13.0347 -2.85032,13.5483 -0.0608,0.51368 -0.51302,3.6843 -0.8225,7.22596 -0.30889,3.54163 -0.42541,10.62727 -0.16374,15.73594 0.26173,5.10869 1.71651,13.9597 3.148,19.88963 1.43166,5.92932 5.15858,15.7437 8.05358,21.42761 2.89504,5.68376 8.39374,14.01606 12.50515,19.26941 4.11099,5.25322 12.34408,12.84777 17.60772,16.9149 5.26385,4.06699 14.9015,9.79606 20.72091,12.29804 5.81889,2.50204 15.17207,5.59981 20.76708,6.78989 5.59459,1.18995 14.91239,2.25845 20.32261,2.33645 5.41006,0.0781 14.46685,-0.56574 19.37837,-1.44703 4.91192,-0.88102 12.38326,-2.77499 16.6101,-4.17753 4.22683,-1.40252 10.84638,-4.27628 14.24496,-5.97699 3.39859,-1.70072 8.14786,-4.57495 10.71245,-6.18387 8.15893,-7.2513 5.11537,-5.72464 10.09075,-13.00252 7.34529,-10.54208 6.20954,-27.10888 1.79547,-30.97727 -4.41374,-3.86975 -18.89122,-3.77108 -36.10447,6.91328 -2.44127,1.65566 -3.38727,2.39102 -6.66813,4.18649 -3.28086,1.7955 -4.04374,2.2534 -8.19442,3.80751 -4.15054,1.55416 -5.63877,1.98488 -10.55015,3.06603 -4.91136,1.08099 -5.95659,1.1045 -11.48491,1.24822 -5.52833,0.14381 -6.96071,-0.0333 -12.81851,-1.02517 -5.85799,-0.99174 -6.89914,-1.09964 -13.19,-3.84982 -6.29085,-2.75021 -8.06922,-3.20488 -13.92994,-7.77435 -5.86072,-4.56947 -7.77718,-5.91698 -12.47153,-11.9391 -4.69433,-6.02212 -6.01998,-8.22811 -9.08853,-15.03869 -3.06859,-6.81045 -3.74485,-8.56763 -4.80772,-15.88677 -1.06288,-7.31915 -1.50279,-9.68656 -0.92845,-16.03417 0.57436,-6.34762 0.70073,-8.59951 1.96916,-13.01259 1.26846,-4.41309 1.75205,-6.03639 1.88493,-6.38633 0.13289,-0.34991 0.44151,-1.63485 1.81587,-4.83567 1.37435,-3.20085 2.02296,-5.21209 4.86436,-9.80361 2.84134,-4.59154 4.39828,-7.1275 9.02634,-12.07306 4.62806,-4.94559 7.34559,-7.37413 13.64621,-11.46046 6.30062,-4.08632 9.9398,-6.05359 17.73184,-8.35888 7.79208,-2.30545 12.75467,-3.45993 21.15975,-3.43709 8.40479,0.0226 14.03344,0.46166 22.01214,2.95127 7.97794,2.4894 13.64171,5.0965 20.41784,9.31928 6.77552,4.22263 11.34715,8.20862 16.39061,14.05525 5.04331,5.84659 8.61275,11.1804 11.89235,17.6495 3.27894,6.46911 5.22512,12.38925 6.73442,18.7883 0.0393,-0.38748 0.0415,-0.92631 0.009,-1.6075 -0.0327,-0.68118 -0.0987,-1.40349 -0.24413,-2.35437 -0.14541,-0.95091 -0.27149,-1.95259 -0.54906,-3.14569 -0.27764,-1.19318 -0.519,-2.43831 -0.94519,-3.84545 -0.42621,-1.4072 -0.83066,-2.85516 -1.41953,-4.44696 -0.58783,-1.59235 -1.19722,-3.19779 -1.95752,-4.94568 -0.76028,-1.74791 -1.60716,-3.46291 -2.54676,-5.33713 -0.93961,-1.87405 -1.99164,-3.56522 -3.20826,-5.47793 -1.21658,-1.91282 -2.38932,-3.69285 -3.8886,-5.59115 -1.49931,-1.89825 -3.02341,-3.71295 -4.70998,-5.63097 -1.68657,-1.91805 -3.43304,-3.5023 -5.39199,-5.3157 -1.95896,-1.81336 -3.88015,-3.30094 -6.09375,-4.9607 -2.2136,-1.65979 -4.30057,-3.00503 -6.74285,-4.46698 -2.44229,-1.46187 -4.67371,-2.62931 -7.31083,-3.85589 -2.637,-1.22706 -4.99225,-2.16892 -7.78409,-3.13191 -2.79171,-0.96296 -5.2409,-1.63593 -8.14305,-2.31495 -2.90217,-0.67895 -5.40205,-1.05467 -8.36777,-1.43881 -2.96587,-0.38419 -5.4658,-0.45129 -8.44785,-0.53832 -2.98207,-0.087 -5.42869,0.14948 -8.38036,0.35344 -2.95165,0.20447 -5.02579,0.55877 -7.87662,1.17997 -2.85087,0.62132 -5.08475,1.09972 -7.80568,1.9738 -2.72089,0.87401 -4.7903,1.55154 -7.34353,2.65113 -2.55311,1.09978 -4.43337,1.91732 -6.78529,3.21033 -2.35192,1.29302 -4.03453,2.18318 -6.15667,3.63169 -2.12212,1.44851 -3.84246,2.69276 -5.78544,4.16017 -1.94293,1.46741 -3.07792,2.55288 -4.75824,4.09866 -1.68033,1.54576 -2.67647,2.47005 -4.085,4.04475 -1.40851,1.57471 -2.46234,2.75318 -3.67428,4.24542 -1.21198,1.49222 -2.02605,2.59567 -3.04279,3.97503 -1.01682,1.37918 -1.61877,2.35325 -2.44504,3.58855 -0.82626,1.23525 -1.25348,2.02736 -1.89743,3.08722 -0.64429,1.05971 -0.94371,1.62183 -1.41721,2.47491 l -7.5e-4,-3.3e-4"
       id="path55"
       style="stroke-width:1.56825"
       inkscape:transform-center-x="3.1715612"
       inkscape:transform-center-y="6.221437" />
    <text
       xml:space="preserve"
       id="text2333"
       style="font-style:normal;font-weight:normal;font-size:64px;line-height:1.25;font-family:sans-serif;white-space:pre;shape-inside:url(#rect2335);fill:#000000;fill-opacity:1;stroke:none"
       transform="matrix(1.4608461,0,0,1.4620893,-189.02866,-85.690434)"><tspan
         x="387.40625"
         y="237.24023"
         id="tspan35"><tspan
           style="font-family:Uroob;-inkscape-font-specification:Uroob"
           id="tspan33">MUSHIN</tspan></tspan></text>
    <text
       xml:space="preserve"
       id="text52865"
       style="font-style:normal;font-weight:normal;font-size:40px;line-height:1.25;font-family:sans-serif;white-space:pre;shape-inside:url(#rect52867);fill:#000000;fill-opacity:1;stroke:none" />
    <text
       xml:space="preserve"
       id="text69510"
       style="font-style:normal;font-weight:normal;font-size:40px;line-height:1.25;font-family:sans-serif;white-space:pre;shape-inside:url(#rect69512);fill:#000000;fill-opacity:1;stroke:none" />
    <text
       xml:space="preserve"
       style="font-style:normal;font-weight:normal;font-size:192px;line-height:1.25;font-family:sans-serif;fill:#000000;fill-opacity:1;stroke:none"
       x="212.51624"
       y="274.08032"
       id="text70618"
       transform="rotate(1.2612293)"><tspan
         sodipodi:role="line"
         id="tspan70616"
         x="212.51624"
         y="274.08032"
         style="font-style:normal;font-variant:normal;font-weight:normal;font-stretch:normal;font-size:192px;font-family:Ubuntu;-inkscape-font-specification:Ubuntu">μ</tspan></text>
  </g>
</svg>
