<?xml version="1.0" encoding="UTF-8" standalone="no"?>
<!-- Created with Inkscape (http://www.inkscape.org/) -->

<svg
   width="200mm"
   height="50mm"
   viewBox="0 0 200 50"
   version="1.1"
   id="svg5"
   inkscape:version="1.1.2 (0a00cf5339, 2022-02-04)"
   sodipodi:docname="mushin-logo.svg"
   xmlns:inkscape="http://www.inkscape.org/namespaces/inkscape"
   xmlns:sodipodi="http://sodipodi.sourceforge.net/DTD/sodipodi-0.dtd"
   xmlns="http://www.w3.org/2000/svg"
   xmlns:svg="http://www.w3.org/2000/svg">
  <sodipodi:namedview
     id="namedview7"
     pagecolor="#ffffff"
     bordercolor="#111111"
     borderopacity="1"
     inkscape:pageshadow="0"
     inkscape:pageopacity="0"
     inkscape:pagecheckerboard="1"
     inkscape:document-units="mm"
     showgrid="false"
     height="50mm"
     inkscape:zoom="1.0610557"
     inkscape:cx="538.61451"
     inkscape:cy="155.97673"
     inkscape:window-width="1920"
     inkscape:window-height="1136"
     inkscape:window-x="0"
     inkscape:window-y="0"
     inkscape:window-maximized="1"
     inkscape:current-layer="layer1" />
  <defs
     id="defs2" />
  <g
     inkscape:label="Layer 1"
     inkscape:groupmode="layer"
     id="layer1">
    <path
       fill="#000000"
       d="m 15.285644,16.20244 c -0.003,5.42e-4 0.01843,-0.05854 0.06598,-0.172131 0.04699,-0.113683 0.06758,-0.18357 0.173072,-0.398734 0.105082,-0.215331 0.168901,-0.394417 0.339042,-0.698378 0.170159,-0.303981 0.298706,-0.572709 0.53851,-0.952556 0.239797,-0.379809 0.45118,-0.716613 0.76393,-1.159394 0.312736,-0.442784 0.547446,-0.765548 0.95935,-1.238956 0.411919,-0.473403 0.732729,-0.851426 1.24609,-1.33476 0.513409,-0.4833543 0.942668,-0.8783629 1.556072,-1.3518273 0.613397,-0.4734229 1.161652,-0.846096 1.870131,-1.2910191 0.708461,-0.4449115 1.310071,-0.7515441 2.124142,-1.1130317 0.814069,-0.3615451 1.509393,-0.6509258 2.410432,-0.9063193 0.901053,-0.2553909 1.690873,-0.4857661 2.655942,-0.6160764 0.965119,-0.1302727 1.873297,-0.214224 2.875099,-0.25301 1.001792,-0.038802 1.92066,0.052217 2.93761,0.1607952 1.016952,0.1085022 1.955143,0.3394948 2.956102,0.5993283 1.000918,0.2598257 1.930191,0.6344409 2.883642,1.0417056 0.953451,0.4072649 1.848277,0.9176763 2.724892,1.4601077 0.876666,0.5424571 1.70657,1.1847165 2.481749,1.8424905 0.775168,0.6578295 1.511159,1.4194345 2.166307,2.1674345 0.655149,0.748001 1.277794,1.605319 1.800831,2.415331 0.523041,0.809997 1.024772,1.734285 1.409806,2.576799 0.385068,0.842559 0.77049,1.805298 1.017497,2.650929 0.247037,0.845633 0.471998,1.776648 0.626459,2.590409 0.154462,0.813757 0.267802,1.785358 0.299339,2.552468 0.03157,0.767081 0.04467,1.637485 0.0045,2.335944 -0.04018,0.698425 -0.115468,1.507769 -0.213049,2.123645 -0.09754,0.615919 -0.229581,1.26616 -0.340403,1.79418 -0.110786,0.527987 -0.310791,1.165948 -0.445938,1.592552 -0.135151,0.426641 -0.299571,0.889255 -0.420509,1.214859 -0.120848,0.325611 -0.269882,0.686804 -0.363325,0.906766 -0.09345,0.219985 -0.164005,0.388564 -0.21022,0.502018 -0.04622,0.113453 -0.06797,0.17181 -0.06352,0.17142 0.0075,-9.17e-4 0.01364,-0.0029 0.02127,-0.0046 0.0077,-0.002 0.01403,-0.0049 0.02132,-0.008 0.0079,-0.0029 0.0144,-0.0069 0.02146,-0.01095 0.0066,-0.0042 0.01474,-0.0087 0.0214,-0.01373 0.0068,-0.005 0.01365,-0.01054 0.02147,-0.01635 0.0069,-0.0059 0.01396,-0.01215 0.02146,-0.01866 0.0071,-0.0067 0.01423,-0.01354 0.02158,-0.02076 0.0072,-0.0073 0.01447,-0.01483 0.02164,-0.02264 0.0073,-0.008 0.01468,-0.0159 0.02153,-0.02434 0.0074,-0.0084 0.01485,-0.01681 0.02166,-0.02576 0.0061,-0.0091 0.01501,-0.01766 0.02159,-0.02695 0.0062,-0.0094 0.01514,-0.01835 0.02163,-0.02793 0.0062,-0.0097 0.01384,-0.01912 0.02163,-0.02869 0.0063,-0.01003 0.01391,-0.01953 0.02172,-0.0292 0.0063,-0.01002 0.01396,-0.01978 0.02164,-0.02949 0.0063,-0.01017 0.01397,-0.01982 0.02165,-0.02956 0.0063,-0.01017 0.01397,-0.01981 0.02162,-0.02942 0.0063,-0.01002 0.01392,-0.01957 0.02155,-0.02904 0.0063,-0.0099 0.01386,-0.01923 0.02158,-0.02846 0.0062,-0.0096 0.01375,-0.01868 0.02142,-0.02763 0.0062,-0.0093 0.01363,-0.01802 0.02151,-0.02655 0.0061,-0.0091 0.01488,-0.01694 0.02142,-0.02531 0.0074,-0.0083 0.01469,-0.016 0.02141,-0.02375 0.0073,-0.0077 0.01449,-0.01494 0.02139,-0.02205 0.0071,-0.007 0.01426,-0.01371 0.0213,-0.02009 0.007,-0.0063 0.014,-0.01237 0.02131,-0.01786 0.0069,-0.0056 0.0137,-0.0108 0.02116,-0.01553 0.0067,-0.0047 0.01339,-0.0091 0.02108,-0.01285 0.0065,-0.0038 0.01444,-0.0071 0.02099,-0.01004 0.0063,-0.0029 0.01405,-0.005 0.02097,-0.0069 0.0076,-0.0016 0.01368,-0.0031 0.02093,-0.0036 0.0074,-5.29e-4 0.01328,-9.44e-4 0.02079,1.46e-4 0.0054,0.0021 0.03512,-0.04601 0.08594,-0.142438 0.05097,-0.09639 0.163413,-0.35108 0.246683,-0.544406 0.08328,-0.193322 0.235831,-0.536352 0.339421,-0.823168 0.103556,-0.286811 0.270849,-0.720158 0.383343,-1.095969 0.112517,-0.375845 0.270672,-0.898023 0.381643,-1.357471 0.111116,-0.459422 0.237726,-1.065934 0.338228,-1.602623 0.100811,-0.536595 0.18915,-1.322938 0.240168,-1.933044 0.05102,-0.610105 0.08022,-1.453312 0.06897,-2.124881 -0.01124,-0.67155 -0.07007,-1.559424 -0.153613,-2.278824 -0.08352,-0.719395 -0.253007,-1.63376 -0.416082,-2.386341 -0.163089,-0.752585 -0.459836,-1.758412 -0.743995,-2.516327 -0.284174,-0.757917 -0.671005,-1.666799 -1.041283,-2.422776 -0.370321,-0.755984 -0.915738,-1.695193 -1.406496,-2.411004 -0.490756,-0.715823 -1.116056,-1.52482 -1.686432,-2.20366 C 48.86626,10.257066 48.075905,9.4917369 47.402322,8.8962778 46.728745,8.3007909 45.874292,7.6203435 45.114839,7.1291435 44.355415,6.6379341 43.476813,6.1210691 42.674121,5.70957 41.871447,5.2979741 40.901109,4.8809234 40.054609,4.5970445 39.208156,4.3131462 38.26798,4.0468842 37.414235,3.8519988 36.560451,3.6571672 35.585063,3.5103928 34.736108,3.4446502 c -0.848871,-0.066188 -1.753191,-0.092424 -2.572621,-0.077408 -0.819367,0.015064 -1.705116,0.084754 -2.475309,0.2097416 -0.770192,0.1249741 -1.562394,0.2679752 -2.272409,0.4529766 -0.710006,0.1849591 -1.424321,0.4015435 -2.063472,0.6338837 -0.639109,0.2323469 -1.26881,0.4926435 -1.828392,0.7578004 -0.559584,0.2651713 -1.10551,0.5370484 -1.579394,0.8189787 -0.473886,0.2819437 -0.918495,0.559075 -1.316523,0.8217102 -0.398041,0.2626318 -0.767459,0.5188394 -1.075247,0.7666218 -0.307778,0.2478005 -0.593701,0.4605935 -0.823694,0.6635486 -0.23002,0.2029364 -0.426161,0.3750017 -0.585881,0.513767 -0.15979,0.1387532 -0.278197,0.2517131 -0.358829,0.3255671 -0.08062,0.073917 -0.123932,0.1102432 -0.127736,0.1065244 -0.0037,-0.00358 0.03303,-0.04728 0.107744,-0.1284394 0.07472,-0.081175 0.189934,-0.2027518 0.345558,-0.3489787 0.155679,-0.1462163 0.348396,-0.3256759 0.575668,-0.5359673 0.227257,-0.210294 0.511223,-0.45247 0.830137,-0.6925533 0.318884,-0.2400743 0.677943,-0.5177895 1.076699,-0.7875376 0.398762,-0.269776 0.851114,-0.555377 1.327071,-0.8441428 0.475956,-0.2887513 1.039444,-0.568528 1.602672,-0.8399129 0.563249,-0.271411 1.213718,-0.5364159 1.857842,-0.7742211 0.644128,-0.2378196 1.381779,-0.4552502 2.097996,-0.6448432 0.716219,-0.1895939 1.562469,-0.3692329 2.345123,-0.4607398 0.782659,-0.091535 1.66412,-0.179831 2.491501,-0.196933 0.827369,-0.017106 1.757547,0.024252 2.614792,0.08958 0.857251,0.065296 1.864844,0.2435491 2.727238,0.439116 0.862351,0.195557 1.823911,0.4891192 2.67896,0.7748105 0.855035,0.2857746 1.84677,0.7504483 2.657684,1.1652487 0.810922,0.4148457 1.781537,0.9763919 2.522555,1.5092597 0.741005,0.5328653 1.571819,1.1886121 2.252478,1.7894868 0.680654,0.6008306 1.464036,1.4259941 2.040542,2.1110941 0.576489,0.68511 1.271044,1.585957 1.731345,2.331191 0.460305,0.745218 0.971946,1.648434 1.346773,2.411483 0.374828,0.763048 0.797679,1.790205 1.048412,2.567907 0.250777,0.777708 0.516545,1.733103 0.682628,2.492887 0.166127,0.759793 0.299307,1.708559 0.385488,2.434978 0.08613,0.726414 0.103438,1.645445 0.117039,2.323755 0.01359,0.678307 -0.0621,1.548829 -0.110895,2.165383 -0.04875,0.616563 -0.188492,1.425705 -0.286669,1.968521 -0.09764,0.542879 -0.267446,1.285354 -0.399473,1.744471 -0.132024,0.459157 -0.294328,1.000807 -0.42295,1.375987 -0.128547,0.375194 -0.29663,0.828737 -0.411046,1.115144 -0.1144,0.286389 -0.263778,0.651708 -0.352435,0.845403 -0.08859,0.193708 -0.156244,0.3425 -0.201484,0.443181 -0.04524,0.100688 -0.06807,0.153254 -0.06686,0.154534 0.0049,0.0048 0.04169,-0.0576 0.109391,-0.183715 0.0677,-0.126124 0.233451,-0.433467 0.347579,-0.688178 0.114181,-0.254689 0.321684,-0.687582 0.465638,-1.066758 0.144008,-0.379167 0.359059,-0.939228 0.517774,-1.437226 0.158642,-0.497975 0.407146,-1.302511 0.535585,-1.919355 0.129142,-0.616714 0.323027,-1.535032 0.398412,-2.259295 0.07539,-0.724262 0.164562,-1.744601 0.167527,-2.561678 0.003,-0.817075 -0.0572,-1.91683 -0.142408,-2.809625 -0.08521,-0.892793 -0.344176,-2.156268 -0.575474,-3.096051 C 54.461454,18.475886 54.015547,17.20624 53.627344,16.25221 53.239102,15.298185 52.578014,14.067629 52.028669,13.133821 51.479296,12.199995 50.553586,10.95183 49.803085,10.108743 49.05257,9.2656511 48.00193,8.2296332 47.107482,7.4843986 46.213017,6.739176 44.904064,5.7976177 43.855397,5.2328135 42.806765,4.6680452 41.450205,3.9995984 40.313636,3.5927283 39.176994,3.1858596 37.719144,2.7926977 36.528807,2.5572443 35.338446,2.3217624 33.753209,2.1833746 32.543892,2.1817264 c -1.209405,-0.00167 -2.672151,0.1231974 -3.855108,0.2915983 -1.182979,0.1682965 -2.65255,0.5618345 -3.759277,0.9407512 -1.106745,0.3789276 -2.377998,0.9485072 -3.389088,1.4642732 -1.011091,0.5157648 -2.204402,1.2945117 -3.062772,1.9659918 -0.85837,0.6714799 -1.831001,1.516308 -2.544307,2.2673946 -0.713245,0.7510691 -1.505931,1.6826845 -2.062521,2.4802605 -0.556597,0.797536 -1.115361,1.718695 -1.553702,2.505774 -0.438383,0.787071 -0.857873,1.7655 -1.143494,2.533998 -0.285593,0.768504 -0.554819,1.631668 -0.739247,2.338209 -0.184407,0.706581 -0.33243,1.498051 -0.43062,2.121939 -0.098197,0.623926 -0.1694813,1.317506 -0.2002368,1.840452 -0.030762,0.522906 -0.044609,1.047122 -0.050055,1.453959 -0.00545,0.406837 0.01377,0.808631 0.021566,1.089112 0.0077,0.2805 0.02865,0.550349 0.036334,0.695165 0.00763,0.144823 0.00805,0.219813 8.224e-4,0.220342 -0.00738,5.35e-4 -0.02139,-0.07342 -0.04204,-0.217195 -0.020653,-0.143761 -0.054007,-0.415719 -0.073458,-0.695697 -0.01931,-0.279959 -0.049723,-0.686024 -0.054632,-1.092764 -0.00491,-0.406742 -6.219e-4,-0.937095 0.021008,-1.460211 0.021631,-0.523118 0.085791,-1.232104 0.175994,-1.856788 0.09019,-0.624688 0.2341014,-1.434312 0.4110434,-2.142199 0.177496,-0.707747 0.445827,-1.591205 0.725577,-2.361132 0.279742,-0.76989 0.706648,-1.779832 1.14001,-2.568744 0.433376,-0.788909 0.999286,-1.731987 1.551635,-2.531296 0.552377,-0.799306 1.363223,-1.7621232 2.072968,-2.5150032 C 16.450033,8.1970649 17.44621,7.3234856 18.301605,6.6501926 19.157041,5.97692 20.389394,5.1659468 21.39805,4.6483677 22.40672,4.13079 23.71092,3.541333 24.815482,3.1606378 25.920101,2.7799531 27.3515,2.437302 28.523069,2.2116073 c 1.171574,-0.2256514 2.780913,-0.3181435 3.988827,-0.3183047 1.207771,-1.728e-4 2.849866,0.1353482 4.038971,0.3687925 1.189013,0.2330799 2.690596,0.6308281 3.826054,1.0354254 1.135454,0.4046246 2.536063,1.083338 3.583856,1.6456266 1.047746,0.5623082 2.413566,1.5277002 3.307703,2.2701363 0.894136,0.7424349 1.984311,1.8020206 2.735025,2.6420774 0.750701,0.8400522 1.611876,2.0486252 2.207194,2.9519502 0.595316,0.903338 1.310038,2.302464 1.700148,3.253202 0.390099,0.950722 0.863851,2.259442 1.097964,3.195987 0.234112,0.936546 0.456584,2.114538 0.588869,2.999154 0.132312,0.884619 0.181296,2.155576 0.183129,2.970011 0.0019,0.814437 -0.07397,1.869149 -0.143524,2.591262 -0.06958,0.722073 -0.252867,1.67801 -0.374323,2.293337 -0.121593,0.615302 -0.36121,1.461129 -0.511871,1.958493 -0.150666,0.497362 -0.358203,1.079625 -0.493131,1.458876 -0.134858,0.379266 -0.335097,0.836387 -0.438974,1.092011 -0.103882,0.255634 -0.262428,0.58968 -0.318972,0.717587 -0.05654,0.127946 -0.08184,0.192676 -0.07377,0.190044 0.01571,-0.0053 0.06949,-0.08584 0.158727,-0.237093 0.08937,-0.15119 0.279592,-0.523504 0.422439,-0.818847 0.143156,-0.295222 0.373541,-0.812369 0.551815,-1.247203 0.178211,-0.434882 0.481207,-1.248504 0.648432,-1.825775 0.1672,-0.577275 0.437,-1.53265 0.564569,-2.242732 0.127959,-0.710008 0.298966,-1.800751 0.361998,-2.629833 0.06317,-0.829054 0.115101,-2.195403 0.04693,-3.124117 -0.06824,-0.928693 -0.222081,-2.215231 -0.396365,-3.220974 -0.174507,-1.00571 -0.632203,-2.643384 -1.02605,-3.671485 C 54.364588,15.481215 53.698192,14.009689 53.12463,12.988726 52.551072,11.967751 51.513702,10.432627 50.712561,9.4966587 49.911454,8.560655 48.675655,7.3175758 47.706424,6.4784077 46.737149,5.6392441 45.095904,4.5358188 43.943328,3.8872883 42.790849,3.2387759 40.954608,2.4174814 39.668548,2.0025361 38.382337,1.5875348 36.416089,1.116294 35.056399,0.95860467 33.69675,0.80085121 31.682674,0.72071523 30.312636,0.82579858 28.942795,0.93107648 26.966901,1.2453423 25.647939,1.6043352 c -1.318928,0.3590286 -3.178228,1.0456881 -4.388985,1.638239 -1.210921,0.5925647 -2.88656,1.6102275 -3.937608,2.4052573 -1.051048,0.7950289 -2.492143,2.083983 -3.339212,3.039253 -0.847064,0.9552408 -1.886186,2.3385705 -2.551721,3.3682365 -0.665513,1.029784 -1.4921483,2.668386 -1.9129569,3.754608 -0.4208157,1.086182 -0.902499,2.610901 -1.1385376,3.679653 -0.236095,1.068817 -0.4373985,2.56863 -0.5057374,3.580829 -0.068227,1.012218 -0.04186,2.430392 0.032388,3.352032 0.07422,0.921633 0.2604871,2.224239 0.4454668,3.027891 0.1849168,0.803676 0.4619531,1.827535 0.6884692,2.504714 0.2265588,0.677185 0.5728565,1.55582 0.8142698,2.097342 0.2414701,0.541531 0.5957141,1.279346 0.8233241,1.680275 0.227579,0.40094 0.491871,0.868224 0.662216,1.136916 0.170237,0.268724 0.300887,0.474647 0.388873,0.613445 0.08813,0.138789 0.222352,0.325752 0.222352,0.325752 L 11.087889,36.46299 10.388466,35.190413 9.765407,33.879913 9.1730998,32.399136 8.7289238,31.018925 8.3665258,29.615238 8.087148,28.19248 7.8905299,26.606833 7.802738,25.157576 7.8010904,23.704562 7.9099705,22.1017 8.1043141,20.657522 8.3857767,19.226019 8.800443,17.661587 9.2737068,16.276119 9.829884,14.919903 l 0.637001,-1.322188 0.715011,-1.283325 0.892838,-1.367587 0.881038,-1.179412 0.950424,-1.1255416 1.133573,-1.1792796 1.093398,-0.989658 1.15034,-0.9239574 1.20315,-0.8554488 1.395639,-0.8559019 1.306203,-0.691119 1.344642,-0.6151237 1.532637,-0.5834993 1.415288,-0.4365861 1.439002,-0.3552663 1.620185,-0.29232295 1.476294,-0.16664362 1.484728,-0.0816933 1.488352,0.003973 1.654135,0.12069946 1.478637,0.19930703 1.465495,0.28571688 1.612537,0.427761 1.417526,0.4770495 1.387303,0.5594207 1.352225,0.6396996 1.462497,0.8129723 1.255836,0.810315 1.204763,0.8821642 1.149358,0.9509015 1.209342,1.1462093 1.00932,1.0925795 0.941842,1.1489036 0.966774,1.346463 0.778544,1.2606 0.702668,1.302841 0.624838,1.340743 0.591467,1.541199 0.441533,1.410287 0.358355,1.433622 0.290243,1.626909 0.164833,1.470052 0.07793,1.478189 -0.02399,1.660809 -0.121673,1.479432 -0.209988,1.471282 -0.298161,1.45803 -0.453126,1.614992 c 0,0 1.359264,-4.034093 1.470606,-5.561692 0.07697,-1.055863 0.06064,-2.820709 -0.03433,-4.081004 -0.09498,-1.260487 -0.531632,-3.571918 -0.983838,-4.9472 C 55.480845,16.103474 54.586623,13.960347 53.79912,12.557262 53.011611,11.154261 51.399349,8.9949488 50.198329,7.7232186 48.997354,6.4514098 46.528179,4.4259294 44.725192,3.4104448 42.922546,2.3950101 39.734173,1.0595313 37.514332,0.57827645 35.294669,0.09708337 31.539271,-0.16994283 29.205563,0.12032184 26.871916,0.41062303 23.254864,1.3711359 21.181565,2.3851058 19.108189,3.3990186 15.962931,5.488871 14.354473,7.1300191 12.746181,8.7711398 10.694197,11.517649 9.7907864,13.289717 8.8874038,15.061791 7.928645,17.771451 7.6174478,19.185333 7.3062787,20.599297 7.1163135,22.297879 7.108346,22.419935 c -0.00782,0.122068 -0.074832,0.876489 -0.1023194,1.716824 -0.027324,0.840324 0.039704,2.515557 0.1718503,3.719244 0.1321463,1.203687 0.6039376,3.277143 1.0308243,4.660837 0.4269012,1.383542 1.4626509,3.657389 2.2411338,4.965452 0.778491,1.308026 2.223992,3.210558 3.291686,4.402353 1.067569,1.191771 3.166275,2.887309 4.497441,3.785096 1.331216,0.897757 3.74546,2.135802 5.190362,2.657209 1.444771,0.521425 3.754657,1.141288 5.127503,1.355469 1.372735,0.214157 3.64676,0.355072 4.959843,0.308761 1.313039,-0.0463 3.500739,-0.306758 4.67998,-0.573713 1.179345,-0.266898 2.965752,-0.803715 3.971953,-1.185609 1.006186,-0.381897 2.572855,-1.13997 3.374191,-1.582393 0.801322,-0.442426 1.914417,-1.178234 2.514726,-1.588995 1.881142,-1.810593 1.16357,-1.413531 2.272296,-3.192315 1.639586,-2.578239 1.14148,-6.478199 0.01896,-7.339211 -1.122398,-0.861334 -4.631999,-0.66479 -8.662734,2.06514 -0.569768,0.420329 -0.789301,0.605361 -1.5608,1.068764 -0.7715,0.463404 -0.950351,0.580705 -1.936049,0.997496 -0.985641,0.416802 -1.340759,0.536361 -2.517288,0.850526 -1.176522,0.314131 -1.429684,0.332189 -2.768419,0.432296 -1.338739,0.100123 -1.688485,0.07541 -3.122391,-0.08879 C 28.347142,39.6902 28.093193,39.677163 26.530634,39.102768 24.968063,38.528366 24.53067,38.442237 23.047958,37.432924 21.565245,36.423612 21.08238,36.128226 19.862991,34.761798 18.643603,33.395371 18.292469,32.890117 17.456754,31.317976 16.621032,29.745872 16.433406,29.338868 16.077248,27.622592 15.721092,25.906315 15.582579,25.35233 15.636532,23.845967 c 0.05395,-1.506364 0.05432,-2.039836 0.30259,-3.097512 0.248241,-1.057684 0.343799,-1.446921 0.371211,-1.531201 0.02769,-0.08422 0.08479,-0.391537 0.375352,-1.164056 0.290298,-0.772569 0.420512,-1.255452 1.047852,-2.374101 0.627326,-1.118652 0.97081,-1.736348 2.026667,-2.960016 1.055857,-1.223668 1.682235,-1.829872 3.15526,-2.8705865 1.473024,-1.0407002 2.329124,-1.5489671 4.187765,-2.1867781 1.858666,-0.6378634 3.046618,-0.9699624 5.085243,-1.0651469 2.038547,-0.095228 3.409444,-0.058866 5.37783,0.4337829 1.96819,0.4926122 3.376765,1.0407148 5.076822,1.9571672 1.699887,0.9164346 2.86214,1.8033294 4.163829,3.1241284 1.30165,1.320777 2.238993,2.538071 3.121291,4.027014 0.88215,1.488958 1.433714,2.864181 1.885757,4.357757 0.0044,-0.09199 -0.0023,-0.219303 -0.0195,-0.379844 -0.01703,-0.16051 -0.04275,-0.330358 -0.09085,-0.553251 -0.04809,-0.222896 -0.09208,-0.458009 -0.175435,-0.736528 -0.08335,-0.278538 -0.158655,-0.56979 -0.280926,-0.8971 -0.122284,-0.327322 -0.239831,-0.664528 -0.40404,-1.033511 -0.163963,-0.369124 -0.333327,-0.741083 -0.541201,-1.14489 C 50.094175,15.34749 49.865743,14.952478 49.612684,14.520987 49.35962,14.089523 49.081763,13.702612 48.761004,13.265331 48.440251,12.828021 48.131921,12.421559 47.742812,11.99107 47.3537,11.560594 46.959683,11.150136 46.524898,10.71723 46.090103,10.28431 45.645271,9.9309648 45.145818,9.5260286 44.646379,9.1210949 44.160472,8.792682 43.601333,8.4270857 43.042208,8.0614912 42.518001,7.7686713 41.90607,7.452532 41.294146,7.1364223 40.737308,6.8873495 40.081292,6.6291397 39.425284,6.3708894 38.841455,6.1765247 38.151469,5.982453 37.461497,5.7883829 36.858511,5.6586506 36.145558,5.5330917 35.432743,5.4068078 34.821328,5.3486015 34.096935,5.2934037 33.37254,5.2380627 32.765367,5.2521967 32.041014,5.2673217 c -0.72434,0.015128 -1.314498,0.1002697 -2.027565,0.1837638 -0.713047,0.083626 -1.211279,0.1921329 -1.894285,0.3729929 -0.683011,0.1808871 -1.218319,0.320621 -1.866422,0.5596696 -0.648096,0.2390225 -1.140835,0.4238389 -1.745228,0.7141403 -0.604376,0.2903617 -1.049364,0.5059801 -1.602345,0.839572 -0.55298,0.3335919 -0.949063,0.5640072 -1.444227,0.9315851 -0.495163,0.3675634 -0.895635,0.6820753 -1.347101,1.0519744 -0.451451,0.3698892 -0.712095,0.6398932 -1.098808,1.0251552 -0.386726,0.385265 -0.615866,0.615528 -0.936277,1.004372 -0.32041,0.388845 -0.560132,0.679845 -0.833974,1.046856 -0.273857,0.36701 -0.456444,0.637414 -0.684464,0.975429 -0.228056,0.337971 -0.360937,0.575275 -0.544711,0.876977 -0.183701,0.301701 -0.276723,0.493919 -0.418642,0.751992 -0.142044,0.258035 -0.207043,0.394419 -0.310413,0.601605 l -1.77e-4,-6.7e-5"
       id="path55"
       style="stroke-width:0.375884" />
    <text
       xml:space="preserve"
       style="font-style:italic;font-variant:normal;font-weight:bold;font-stretch:normal;font-size:40px;line-height:1.25;font-family:Uroob;-inkscape-font-specification:'Uroob Bold Italic';fill:#000000;fill-opacity:1;stroke:none;stroke-width:0.264583"
       x="15.594672"
       y="33.819592"
       id="text39080"><tspan
         sodipodi:role="line"
         id="tspan39078"
         style="font-style:italic;font-variant:normal;font-weight:bold;font-stretch:normal;font-size:40px;font-family:Uroob;-inkscape-font-specification:'Uroob Bold Italic';stroke-width:0.264583"
         x="15.594672"
         y="33.819592">μ</tspan></text>
    <text
       xml:space="preserve"
       style="font-style:normal;font-variant:normal;font-weight:normal;font-stretch:normal;font-size:44.8387px;line-height:1.25;font-family:Uroob;-inkscape-font-specification:Uroob;letter-spacing:5.2727px;fill:#000000;fill-opacity:1;stroke:none;stroke-width:0.268173"
       x="63.66515"
       y="38.078175"
       id="text110006"
       transform="scale(1.0032094,0.99680086)"><tspan
         sodipodi:role="line"
         id="tspan110004"
         style="font-style:normal;font-variant:normal;font-weight:normal;font-stretch:normal;font-size:44.8387px;font-family:Uroob;-inkscape-font-specification:Uroob;stroke-width:0.268173"
         x="63.66515"
         y="38.078175">MUSHIN</tspan></text>
  </g>
</svg>
