<?xml version="1.0" encoding="UTF-8" standalone="no"?>
<!-- Created with Inkscape (http://www.inkscape.org/) -->

<svg
   width="150"
   height="50"
   viewBox="0 0 150 50"
   version="1.1"
   id="svg5"
   sodipodi:docname="mushin-logo.svg"
   inkscape:version="1.1.2 (0a00cf5339, 2022-02-04)"
   xmlns:inkscape="http://www.inkscape.org/namespaces/inkscape"
   xmlns:sodipodi="http://sodipodi.sourceforge.net/DTD/sodipodi-0.dtd"
   xmlns="http://www.w3.org/2000/svg"
   xmlns:svg="http://www.w3.org/2000/svg">
  <sodipodi:namedview
     id="namedview7"
     pagecolor="#ffffff"
     bordercolor="#666666"
     borderopacity="1.0"
     inkscape:pageshadow="2"
     inkscape:pageopacity="0.0"
     inkscape:pagecheckerboard="true"
     inkscape:document-units="px"
     showgrid="false"
     fit-margin-top="10"
     fit-margin-left="10"
     fit-margin-right="10"
     fit-margin-bottom="10"
     inkscape:zoom="3.7726426"
     inkscape:cx="121.00272"
     inkscape:cy="-5.6989231"
     inkscape:window-width="1920"
     inkscape:window-height="1136"
     inkscape:window-x="0"
     inkscape:window-y="0"
     inkscape:window-maximized="1"
     inkscape:current-layer="layer1"
     lock-margins="true"
     width="375px"
     borderlayer="false"
     showborder="true"
     inkscape:showpageshadow="false" />
  <defs
     id="defs2">
    <rect
       x="234.40268"
       y="202.1057"
       width="64.146286"
       height="48.463425"
       id="rect69512" />
    <rect
       x="246.10197"
       y="213.884"
       width="63.847042"
       height="51.369698"
       id="rect52867" />
    <rect
       x="387.40576"
       y="180.61507"
       width="337.69269"
       height="103.69459"
       id="rect2335" />
  </defs>
  <g
     inkscape:label="Layer 1"
     inkscape:groupmode="layer"
     id="layer1"
     transform="translate(-143.97783,-115.82506)">
    <path
       fill="#000000"
       d="m 152.82376,131.05266 c -0.003,3.4e-4 0.0216,-0.0572 0.0734,-0.16823 0.0518,-0.11094 0.0756,-0.17953 0.18955,-0.38869 0.11368,-0.20934 0.18538,-0.38459 0.36683,-0.67903 0.18148,-0.29447 0.32085,-0.55583 0.57403,-0.92242 0.25318,-0.36657 0.47645,-0.69168 0.80374,-1.11738 0.32727,-0.42571 0.57237,-0.7357 0.99738,-1.18704 0.425,-0.45133 0.75653,-0.81213 1.28035,-1.26837 0.52386,-0.45627 0.96132,-0.82865 1.58148,-1.27014 0.62016,-0.44145 1.17164,-0.78574 1.88229,-1.19412 0.71064,-0.4084 1.31017,-0.68427 2.11848,-1.00436 0.80832,-0.32013 1.49766,-0.57422 2.38437,-0.78434 0.88669,-0.21014 1.6643,-0.4008 2.60611,-0.48316 0.94184,-0.0824 1.826,-0.12138 2.79834,-0.11072 0.97234,0.0101 1.85721,0.14642 2.83609,0.30456 0.97889,0.15811 1.87477,0.43428 2.82984,0.74227 0.95503,0.30798 1.83433,0.72688 2.73527,1.17944 0.90092,0.45256 1.73939,1.00497 2.55846,1.58843 0.81911,0.58345 1.58744,1.26402 2.30191,1.95737 0.71446,0.6934 1.38525,1.48825 1.9785,2.26558 0.59326,0.77732 1.14902,1.66194 1.61091,2.49454 0.4619,0.83259 0.89686,1.77797 1.22331,2.63616 0.32648,0.85825 0.64669,1.83622 0.83929,2.69074 0.19264,0.85452 0.35919,1.79301 0.46394,2.61124 0.10469,0.8182 0.16095,1.79165 0.14921,2.55735 -0.0112,0.76569 -0.0471,1.63338 -0.12445,2.32718 -0.0775,0.69374 -0.19491,1.49629 -0.32335,2.105 -0.12844,0.60875 -0.29159,1.25013 -0.42827,1.77061 -0.13635,0.52052 -0.36524,1.14618 -0.51968,1.56449 -0.15446,0.41835 -0.33917,0.8711 -0.4742,1.18952 -0.13503,0.31841 -0.29923,0.67089 -0.40184,0.88542 -0.1026,0.21455 -0.1803,0.379 -0.23126,0.48975 -0.051,0.11072 -0.0753,0.16783 -0.071,0.16763 0.008,-6.7e-4 0.0138,-0.002 0.0209,-0.003 0.008,-0.001 0.0141,-0.003 0.0212,-0.007 0.008,-0.002 0.0142,-0.007 0.0213,-0.0101 0.008,-0.003 0.0143,-0.008 0.0215,-0.0129 0.008,-0.006 0.0144,-0.0101 0.0216,-0.0152 0.008,-0.006 0.0145,-0.0115 0.0219,-0.0175 0.008,-0.007 0.0146,-0.0129 0.022,-0.0196 0.008,-0.007 0.0147,-0.0141 0.0222,-0.0216 0.008,-0.008 0.0148,-0.0151 0.0223,-0.0232 0.008,-0.008 0.0148,-0.0161 0.0223,-0.0246 0.008,-0.009 0.0149,-0.0169 0.0224,-0.0257 0.008,-0.009 0.0149,-0.0177 0.0225,-0.0266 0.008,-0.009 0.0151,-0.0182 0.0225,-0.0275 0.008,-0.009 0.0151,-0.0187 0.0226,-0.028 0.008,-0.009 0.0152,-0.0189 0.0225,-0.0283 0.008,-0.0101 0.0152,-0.019 0.0226,-0.0283 0.008,-0.0101 0.0151,-0.019 0.0225,-0.0282 0.008,-0.009 0.0151,-0.0187 0.0225,-0.0279 0.008,-0.009 0.015,-0.0184 0.0224,-0.0273 0.008,-0.009 0.0149,-0.0178 0.0224,-0.0264 0.008,-0.009 0.0149,-0.017 0.0224,-0.0254 0.008,-0.009 0.0148,-0.0163 0.0221,-0.0241 0.008,-0.008 0.0147,-0.0154 0.022,-0.0226 0.008,-0.008 0.0147,-0.0142 0.0219,-0.0209 0.008,-0.007 0.0146,-0.013 0.0217,-0.019 0.008,-0.007 0.0144,-0.0115 0.0216,-0.0167 0.008,-0.006 0.0143,-0.0101 0.0214,-0.0143 0.008,-0.003 0.0142,-0.008 0.0212,-0.0115 0.008,-0.003 0.0139,-0.007 0.0209,-0.009 0.008,-0.002 0.0138,-0.003 0.0206,-0.007 0.008,-10e-4 0.0136,-0.002 0.0204,-0.002 0.007,-2.3e-4 0.0136,-1.6e-4 0.0202,0.001 0.007,0.002 0.0365,-0.0441 0.091,-0.13766 0.0547,-0.0936 0.17767,-0.34168 0.26889,-0.5302 0.0914,-0.18848 0.25799,-0.52268 0.37407,-0.80332 0.11605,-0.28061 0.30203,-0.70406 0.43166,-1.07291 0.12964,-0.36886 0.31159,-0.88127 0.44448,-1.33347 0.13288,-0.4522 0.28903,-1.05012 0.41586,-1.57983 0.12691,-0.52965 0.25609,-1.30855 0.33908,-1.9138 0.083,-0.60527 0.15778,-1.44379 0.1839,-2.11332 0.0261,-0.66952 0.0181,-1.55685 -0.0231,-2.2776 -0.0412,-0.72072 -0.15498,-1.63989 -0.27144,-2.3976 -0.11643,-0.75771 -0.3484,-1.77424 -0.58183,-2.54322 -0.23343,-0.76897 -0.55798,-1.69335 -0.87491,-2.46462 -0.31696,-0.77127 -0.79342,-1.73366 -1.22923,-2.47085 -0.43582,-0.73718 -0.99681,-1.57382 -1.51178,-2.27807 -0.51496,-0.70425 -1.23822,-1.50549 -1.85773,-2.13177 -0.61949,-0.62631 -1.40948,-1.34612 -2.11792,-1.87276 -0.7084,-0.52665 -1.5308,-1.08471 -2.28549,-1.53407 -0.75466,-0.44947 -1.67141,-0.91262 -2.47557,-1.23702 -0.8041,-0.32436 -1.69994,-0.63585 -2.51601,-0.87195 -0.81611,-0.23611 -1.7527,-0.42999 -2.57119,-0.53744 -0.81845,-0.1077 -1.69279,-0.17825 -2.48721,-0.20356 -0.79442,-0.0253 -1.65604,6.8e-4 -2.40885,0.0872 -0.75277,0.0866 -1.52787,0.19014 -2.2257,0.33955 -0.69783,0.14941 -1.40154,0.33004 -2.03334,0.53008 -0.63176,0.20003 -1.25593,0.42839 -1.81248,0.66501 -0.55656,0.23664 -1.10024,0.48064 -1.57471,0.73821 -0.47448,0.25755 -0.92034,0.51176 -1.32029,0.75383 -0.39996,0.24205 -0.77184,0.47911 -1.08358,0.71083 -0.31173,0.23169 -0.60035,0.42962 -0.83428,0.62049 -0.23395,0.19085 -0.43339,0.35261 -0.59572,0.48299 -0.16233,0.13038 -0.28329,0.23707 -0.36546,0.30668 -0.0821,0.0695 -0.12614,0.10378 -0.1296,0.0999 -0.003,-0.003 0.0347,-0.0455 0.11145,-0.12267 0.0769,-0.0771 0.19511,-0.19264 0.3539,-0.33064 0.15878,-0.13803 0.35536,-0.3073 0.58706,-0.50563 0.23167,-0.19831 0.52003,-0.4256 0.84211,-0.64906 0.32207,-0.22349 0.6851,-0.48248 1.08614,-0.73161 0.40106,-0.24913 0.85488,-0.51139 1.33174,-0.77565 0.47685,-0.26425 1.03799,-0.51526 1.59842,-0.75792 0.56042,-0.24268 1.20498,-0.4747 1.8419,-0.67993 0.63691,-0.20524 1.36327,-0.38556 2.06736,-0.53922 0.70408,-0.15366 1.53352,-0.29102 2.29653,-0.34369 0.76303,-0.0527 1.62154,-0.0974 2.42376,-0.0738 0.80223,0.0236 1.70078,0.11061 2.52739,0.21776 0.82659,0.10725 1.7926,0.33423 2.617,0.57145 0.82436,0.23725 1.73943,0.57689 2.55175,0.90351 0.81233,0.32664 1.74716,0.83834 2.50963,1.2914 0.76246,0.45311 1.67152,1.06021 2.35979,1.62745 0.68827,0.56723 1.45673,1.26129 2.08281,1.8933 0.62607,0.63196 1.33926,1.49248 1.8598,2.20328 0.52055,0.71079 1.14356,1.64232 1.54825,2.4073 0.40472,0.765 0.85044,1.68987 1.17138,2.46841 0.32095,0.77852 0.67384,1.82251 0.87382,2.60954 0.19999,0.78705 0.40471,1.75181 0.5237,2.51686 0.11904,0.76503 0.19569,1.71668 0.2391,2.44454 0.0434,0.72786 0.01,1.64419 -0.0146,2.32057 -0.0242,0.67636 -0.14551,1.53982 -0.22676,2.1516 -0.0812,0.61177 -0.2611,1.41095 -0.38612,1.94685 -0.12498,0.53586 -0.32989,1.26725 -0.48299,1.71812 -0.15311,0.45092 -0.34026,0.98247 -0.48547,1.34991 -0.14518,0.36742 -0.33293,0.81097 -0.45953,1.09064 -0.12659,0.27966 -0.29141,0.63623 -0.3879,0.82484 -0.0965,0.1886 -0.17025,0.33348 -0.21955,0.43158 -0.0494,0.0981 -0.0744,0.14931 -0.0734,0.15063 0.003,0.006 0.0435,-0.0553 0.11606,-0.17765 0.0725,-0.12227 0.24997,-0.42032 0.37454,-0.66844 0.12454,-0.2481 0.34943,-0.66912 0.50975,-1.03977 0.1603,-0.37064 0.39949,-0.91794 0.58064,-1.40624 0.18114,-0.48824 0.46609,-1.27748 0.62447,-1.88564 0.15839,-0.60816 0.3975,-1.51324 0.51043,-2.231 0.11294,-0.71778 0.25552,-1.72981 0.30345,-2.54358 0.0479,-0.8138 0.0503,-1.91228 0.017,-2.80582 -0.0333,-0.89355 -0.21447,-2.16489 -0.38668,-3.11242 -0.17222,-0.9475 -0.53408,-2.23418 -0.85747,-3.20361 -0.32341,-0.96944 -0.89582,-2.22774 -1.37636,-3.18496 -0.48058,-0.95723 -1.30829,-2.24609 -1.98866,-3.12283 -0.68036,-0.87673 -1.64075,-1.96041 -2.46592,-2.74674 -0.82517,-0.78632 -2.04094,-1.78859 -3.02539,-2.40276 -0.98442,-0.61415 -2.26136,-1.34669 -3.33965,-1.80785 -1.07836,-0.4612 -2.46856,-0.92449 -3.60837,-1.21754 -1.13984,-0.2931 -2.66745,-0.50884 -3.83851,-0.56995 -1.17118,-0.0611 -2.59467,-0.009 -3.7496,0.10099 -1.15494,0.10948 -2.59982,0.42928 -3.69255,0.75235 -1.09269,0.32306 -2.35525,0.82798 -3.36287,1.29206 -1.00762,0.46407 -2.20622,1.18117 -3.07452,1.80788 -0.8683,0.6267 -1.85682,1.42047 -2.589,2.13361 -0.73215,0.71311 -1.55117,1.60218 -2.13418,2.36933 -0.58298,0.76711 -1.17488,1.65726 -1.6428,2.41977 -0.46793,0.76249 -0.92811,1.71654 -1.24708,2.46804 -0.31896,0.75149 -0.62725,1.59812 -0.8448,2.29285 -0.21757,0.69481 -0.40446,1.47596 -0.53395,2.09262 -0.12951,0.61668 -0.23669,1.30412 -0.29535,1.82353 -0.0586,0.51939 -0.10084,1.0409 -0.12861,1.44591 -0.0278,0.40498 -0.0312,0.8062 -0.0392,1.08596 -0.008,0.2798 -0.002,0.54965 -0.002,0.69429 -6.5e-4,0.14463 -0.006,0.21936 -0.0112,0.21953 -0.008,2.2e-4 -0.0166,-0.0741 -0.0288,-0.21842 -0.0125,-0.14421 -0.0293,-0.41677 -0.0328,-0.69663 -0.003,-0.27984 -0.01,-0.68582 0.008,-1.09123 0.0176,-0.40544 0.051,-0.93353 0.10083,-1.45358 0.0497,-0.52005 0.15099,-1.22314 0.27277,-1.84099 0.12178,-0.61784 0.30575,-1.41728 0.51665,-2.11362 0.21091,-0.69629 0.51953,-1.56315 0.83283,-2.31637 0.3133,-0.75319 0.78245,-1.73826 1.24563,-2.50283 0.4632,-0.76457 1.06323,-1.67619 1.64221,-2.44529 0.579,-0.76907 1.41733,-1.68833 2.14618,-2.40343 0.72885,-0.71506 1.74175,-1.53632 2.60727,-2.16497 0.86555,-0.62864 2.10374,-1.37591 3.10911,-1.84193 1.00537,-0.466 2.30092,-0.98908 3.39162,-1.31402 1.09075,-0.32493 2.49589,-0.59591 3.64295,-0.76314 1.14705,-0.16721 2.71073,-0.18023 3.88055,-0.121 1.16967,0.0591 2.7525,0.27492 3.89122,0.5659 1.1386,0.29095 2.57097,0.76061 3.64832,1.21949 1.07732,0.45888 2.39634,1.20383 3.38009,1.81545 0.98371,0.61165 2.25323,1.64046 3.07824,2.42399 0.82502,0.78353 1.8224,1.89262 2.50313,2.76633 0.68072,0.87372 1.44814,2.11998 1.97487,3.04909 0.52675,0.92911 1.14181,2.35799 1.46721,3.32424 0.3254,0.96624 0.71208,2.29319 0.88718,3.23764 0.17511,0.94445 0.32565,2.12884 0.40501,3.01657 0.0794,0.88771 0.0568,2.15618 0.0137,2.96757 -0.0431,0.81139 -0.17465,1.85832 -0.28181,2.57423 -0.10712,0.71589 -0.33737,1.65912 -0.48896,2.26611 -0.15161,0.60696 -0.43035,1.43774 -0.60371,1.92578 -0.17338,0.48804 -0.40642,1.05786 -0.55798,1.42903 -0.15158,0.37116 -0.37063,0.81669 -0.48533,1.06622 -0.11468,0.24954 -0.28665,0.57451 -0.34846,0.69915 -0.0618,0.12472 -0.0899,0.18791 -0.082,0.18568 0.0155,-0.006 0.0721,-0.0822 0.1668,-0.22839 0.0948,-0.14623 0.29963,-0.50773 0.45423,-0.79493 0.15487,-0.28706 0.40656,-0.79087 0.60316,-1.21528 0.19661,-0.42443 0.53484,-1.22004 0.72861,-1.78688 0.19377,-0.56682 0.50764,-1.50528 0.67039,-2.20634 0.16274,-0.70107 0.38879,-1.77912 0.49556,-2.6019 0.1069,-0.82277 0.23246,-2.1813 0.21763,-3.1098 -0.015,-0.92847 -0.0929,-2.21761 -0.20632,-3.22805 -0.11357,-1.01043 -0.46658,-2.66429 -0.79134,-3.70779 -0.32505,-1.04341 -0.88933,-2.54203 -1.38854,-3.58725 -0.49919,-1.04523 -1.41922,-2.62545 -2.1435,-3.5972 -0.72426,-0.97176 -1.85254,-2.27081 -2.74496,-3.15437 -0.89245,-0.88359 -2.42111,-2.06343 -3.50158,-2.76612 -1.08038,-0.70265 -2.81343,-1.61106 -4.03605,-2.08761 -1.22276,-0.47664 -3.10102,-1.04272 -4.40913,-1.26662 -1.30808,-0.22393 -3.25419,-0.4028 -4.5868,-0.36545 -1.33244,0.0375 -3.26332,0.25345 -4.56047,0.54624 -1.29711,0.29283 -3.13559,0.88546 -4.34083,1.41621 -1.20539,0.53077 -2.88425,1.46215 -3.94597,2.20245 -1.06169,0.74031 -2.52837,1.95349 -3.40137,2.86345 -0.87299,0.90992 -1.95559,2.23684 -2.65687,3.22983 -0.70128,0.99312 -1.59216,2.58479 -2.05956,3.64613 -0.46741,1.06133 -1.01793,2.55651 -1.30544,3.60953 -0.28753,1.05309 -0.56523,2.53723 -0.68712,3.54219 -0.1219,1.00497 -0.17451,2.41899 -0.1534,3.34072 0.021,0.92174 0.12969,2.22849 0.26454,3.03813 0.13477,0.80968 0.34666,1.84321 0.5287,2.52892 0.18209,0.68571 0.46903,1.578 0.67299,2.12929 0.20401,0.55132 0.5064,1.30371 0.70473,1.71428 0.19831,0.41059 0.42851,0.88906 0.57866,1.16509 0.15008,0.27606 0.26524,0.48761 0.34281,0.63019 0.0776,0.14257 0.19738,0.33543 0.19738,0.33543 l -0.76126,-1.38301 -0.60724,-1.30205 -0.53116,-1.33609 -0.49202,-1.50419 -0.35409,-1.39672 -0.2736,-1.4161 -0.19215,-1.43102 -0.10303,-1.5892 -0.006,-1.44799 0.0785,-1.44751 0.1938,-1.59134 0.26775,-1.42909 0.35103,-1.41227 0.48779,-1.53802 0.53468,-1.35687 0.61339,-1.32366 0.68978,-1.28579 0.7632,-1.24325 0.94004,-1.31843 0.91824,-1.13157 0.98248,-1.0745 1.16281,-1.11901 1.11346,-0.93211 1.16497,-0.86387 1.21235,-0.79303 1.39879,-0.78399 1.30308,-0.62425 1.33613,-0.54667 1.51646,-0.50592 1.39471,-0.36534 1.41319,-0.28316 1.58519,-0.21157 1.43892,-0.0934 1.44237,-0.009 1.44119,0.0771 1.59531,0.20154 1.42102,0.27119 1.40357,0.35639 1.53811,0.50535 1.34652,0.5449 1.31271,0.62547 1.2743,0.7037 1.37157,0.88172 1.17155,0.86892 1.11814,0.938 1.0607,1.00372 1.10801,1.20125 0.91725,1.13797 0.84883,1.19077 0.86207,1.38881 0.6845,1.29402 0.60871,1.33236 0.53123,1.36631 0.48785,1.56431 0.34988,1.42657 0.26803,1.44572 0.19143,1.6349 0.0786,1.4725 -0.007,1.47633 -0.11481,1.65325 -0.19938,1.46775 -0.28447,1.45529 -0.36909,1.43778 -0.52785,1.58649 c 0,0 1.53873,-3.95176 1.73076,-5.46799 0.13272,-1.04803 0.2142,-2.80688 0.19169,-4.067 -0.0225,-1.2603 -0.318,-3.5843 -0.68015,-4.9765 -0.36223,-1.39204 -1.11011,-3.57087 -1.79544,-5.00725 -0.68535,-1.43632 -2.12773,-3.66656 -3.22078,-4.99244 -1.09299,-1.32594 -3.37265,-3.46499 -5.06279,-4.56519 -1.68981,-1.10014 -4.70399,-2.58718 -6.8273,-3.1757 -2.12311,-0.58849 -5.74535,-1.03902 -8.02144,-0.86459 -2.27601,0.17446 -5.83191,0.95349 -7.8957,1.86164 -2.06385,0.90811 -5.22508,2.83532 -6.87326,4.39109 -1.648,1.55576 -3.78663,4.19083 -4.75922,5.91168 -0.97255,1.72085 -2.05041,4.37296 -2.42971,5.76608 -0.37934,1.39322 -0.65688,3.07594 -0.67131,3.19715 -0.0143,0.12125 -0.12077,0.86943 -0.19371,1.70518 -0.0727,0.83576 -0.10017,2.50782 -0.0386,3.71338 0.0617,1.20555 0.40427,3.29421 0.74142,4.69355 0.33719,1.39922 1.21494,3.71522 1.89678,5.05651 0.68183,1.34126 1.97688,3.30753 2.9452,4.54721 0.96822,1.23966 2.90727,3.03182 4.14697,3.99158 1.23973,0.95974 3.50959,2.31169 4.88016,2.90211 1.37046,0.59043 3.57331,1.32144 4.89106,1.60228 1.31764,0.28079 3.51216,0.53294 4.78637,0.55135 1.27418,0.0185 3.40723,-0.1335 4.56398,-0.34147 1.15685,-0.20791 2.9165,-0.65484 3.912,-0.98582 0.9955,-0.33096 2.55453,-1.00912 3.35496,-1.41045 0.80044,-0.40133 1.91899,-1.07959 2.523,-1.45928 1.92158,-1.71116 1.20476,-1.35089 2.37656,-3.06834 1.72996,-2.48771 1.46246,-6.39717 0.42287,-7.31003 -1.03953,-0.91318 -4.44926,-0.88989 -8.50331,1.6314 -0.57496,0.3907 -0.79777,0.56423 -1.57047,0.98794 -0.77271,0.42369 -0.95238,0.53176 -1.92995,0.8985 -0.97753,0.36674 -1.32803,0.46838 -2.48476,0.72351 -1.15671,0.2551 -1.40289,0.26064 -2.70492,0.29456 -1.30202,0.0339 -1.63939,-0.008 -3.01901,-0.24191 -1.37967,-0.23404 -1.62488,-0.25951 -3.10649,-0.90849 -1.48162,-0.649 -1.90047,-0.7563 -3.28078,-1.83459 -1.38032,-1.07832 -1.83167,-1.3963 -2.93728,-2.8174 -1.10561,-1.4211 -1.41783,-1.94168 -2.14053,-3.54884 -0.72271,-1.60713 -0.88199,-2.0218 -1.13231,-3.74897 -0.25032,-1.72718 -0.35394,-2.28585 -0.21866,-3.78376 0.13526,-1.49791 0.16502,-2.02931 0.46377,-3.07071 0.29875,-1.04141 0.41264,-1.42447 0.44394,-1.50705 0.0313,-0.0826 0.10403,-0.38579 0.42767,-1.14112 0.32369,-0.75534 0.47644,-1.22994 1.14565,-2.31346 0.66918,-1.0835 1.03588,-1.68195 2.12588,-2.84901 1.08999,-1.16706 1.73002,-1.74015 3.21394,-2.70444 1.48392,-0.9643 2.34102,-1.42853 4.17619,-1.97254 1.83519,-0.54404 3.00397,-0.81647 4.98353,-0.81108 1.9795,0.006 3.30516,0.10893 5.18429,0.69644 1.87895,0.58745 3.21288,1.20268 4.8088,2.19916 1.59577,0.99647 2.67247,1.9371 3.86031,3.31677 1.1878,1.37969 2.02847,2.63836 2.80087,4.16494 0.77225,1.52658 1.23062,2.92363 1.5861,4.43366 0.009,-0.0915 0.01,-0.21859 0.002,-0.37933 -0.008,-0.16075 -0.0233,-0.33119 -0.0574,-0.55559 -0.0342,-0.22438 -0.0639,-0.46077 -0.1293,-0.74231 -0.0655,-0.28157 -0.12228,-0.5754 -0.22262,-0.90746 -0.1004,-0.33207 -0.19565,-0.67376 -0.33433,-1.04939 -0.13844,-0.37576 -0.28197,-0.75461 -0.46103,-1.16707 -0.17906,-0.41247 -0.37853,-0.81719 -0.59981,-1.25946 -0.2213,-0.44224 -0.46908,-0.84133 -0.75561,-1.29268 -0.28654,-0.45139 -0.56273,-0.87145 -0.91585,-1.31942 -0.35311,-0.44795 -0.71207,-0.87617 -1.10929,-1.32879 -0.39722,-0.45263 -0.80854,-0.82648 -1.26991,-1.2544 -0.46138,-0.42792 -0.91385,-0.77895 -1.4352,-1.17063 -0.52134,-0.39168 -1.01287,-0.70913 -1.58808,-1.05412 -0.5752,-0.34497 -1.10074,-0.62047 -1.72183,-0.90992 -0.62106,-0.28955 -1.17578,-0.51182 -1.83331,-0.73907 -0.6575,-0.22724 -1.23433,-0.38605 -1.91785,-0.54628 -0.68352,-0.16022 -1.27228,-0.24889 -1.97077,-0.33952 -0.69852,-0.0907 -1.28729,-0.10647 -1.98963,-0.12703 -0.70233,-0.0205 -1.27856,0.0353 -1.97374,0.0834 -0.69517,0.0483 -1.18366,0.13186 -1.85509,0.27846 -0.67144,0.14661 -1.19756,0.25951 -1.83839,0.46577 -0.64083,0.20625 -1.12822,0.36613 -1.72955,0.62562 -0.6013,0.25952 -1.04414,0.45245 -1.59806,0.75756 -0.55392,0.30514 -0.9502,0.5152 -1.45003,0.85702 -0.49979,0.34181 -0.90496,0.63544 -1.36257,0.98172 -0.45761,0.34629 -0.72491,0.60242 -1.12066,0.9672 -0.39575,0.36476 -0.63037,0.58289 -0.9621,0.95448 -0.33173,0.37161 -0.57993,0.6497 -0.86536,1.00184 -0.28545,0.35214 -0.47718,0.61253 -0.71665,0.93803 -0.23946,0.32545 -0.38124,0.55532 -0.57583,0.84683 -0.19461,0.29149 -0.29524,0.47841 -0.4469,0.72853 -0.15173,0.25006 -0.22226,0.38272 -0.33376,0.58402 l -1.9e-4,-8e-5"
       id="path55"
       style="stroke-width:0.369714"
       inkscape:transform-center-x="0.7468036"
       inkscape:transform-center-y="1.4674095" />
    <text
       xml:space="preserve"
       id="text2333"
       style="font-style:normal;font-weight:normal;font-size:64px;line-height:1.25;font-family:sans-serif;white-space:pre;shape-inside:url(#rect2335);fill:#000000;fill-opacity:1;stroke:none"
       transform="matrix(0.65784014,0,0,0.43315479,-57.148746,47.236175)"><tspan
         x="387.40625"
         y="237.24023"
         id="tspan34"><tspan
           style="font-family:Uroob;-inkscape-font-specification:Uroob"
           id="tspan32">MUSHIN</tspan></tspan></text>
    <text
       xml:space="preserve"
       id="text52865"
       style="font-style:normal;font-weight:normal;font-size:40px;line-height:1.25;font-family:sans-serif;white-space:pre;shape-inside:url(#rect52867);fill:#000000;fill-opacity:1;stroke:none" />
    <text
       xml:space="preserve"
       id="text69510"
       style="font-style:normal;font-weight:normal;font-size:40px;line-height:1.25;font-family:sans-serif;white-space:pre;shape-inside:url(#rect69512);fill:#000000;fill-opacity:1;stroke:none" />
    <text
       xml:space="preserve"
       style="font-style:normal;font-weight:normal;font-size:45.2641px;line-height:1.25;font-family:sans-serif;fill:#000000;fill-opacity:1;stroke:none;stroke-width:0.23575"
       x="159.74397"
       y="146.73421"
       id="text70618"
       transform="matrix(0.99878034,0.02203237,-0.02198931,1.0007361,0,0)"><tspan
         sodipodi:role="line"
         id="tspan70616"
         x="159.74397"
         y="146.73421"
         style="font-style:normal;font-variant:normal;font-weight:normal;font-stretch:normal;font-size:45.2641px;font-family:Ubuntu;-inkscape-font-specification:Ubuntu;stroke-width:0.23575">μ</tspan></text>
  </g>
</svg>
